<svg xmlns="http://www.w3.org/2000/svg" xmlns:xlink="http://www.w3.org/1999/xlink" width="500" zoomAndPan="magnify" viewBox="0 0 375 374.999991" height="500" preserveAspectRatio="xMidYMid meet" version="1.0"><defs><clipPath id="b855baa1ce"><path d="M 197 272 L 257 272 L 257 322.5 L 197 322.5 Z M 197 272 " clip-rule="nonzero"/></clipPath><clipPath id="468d3ac9d4"><path d="M 120 272 L 180 272 L 180 322.5 L 120 322.5 Z M 120 272 " clip-rule="nonzero"/></clipPath><clipPath id="614d318df2"><path d="M 45.925781 163 L 85 163 L 85 209 L 45.925781 209 Z M 45.925781 163 " clip-rule="nonzero"/></clipPath><clipPath id="68a5922042"><path d="M 80 123 L 314 123 L 314 322.5 L 80 322.5 Z M 80 123 " clip-rule="nonzero"/></clipPath><clipPath id="7115e45475"><path d="M 80 181 L 311 181 L 311 322.5 L 80 322.5 Z M 80 181 " clip-rule="nonzero"/></clipPath><clipPath id="1e14bab82b"><path d="M 173 37.5 L 259 37.5 L 259 124 L 173 124 Z M 173 37.5 " clip-rule="nonzero"/></clipPath><clipPath id="64fabcf5e1"><path d="M 152 37.5 L 193 37.5 L 193 79 L 152 79 Z M 152 37.5 " clip-rule="nonzero"/></clipPath><clipPath id="6f5605e31b"><path d="M 130 37.5 L 216 37.5 L 216 104 L 130 104 Z M 130 37.5 " clip-rule="nonzero"/></clipPath></defs><rect x="-37.5" width="450" fill="#ffffff" y="-37.499999" height="449.999989" fill-opacity="1"/><rect x="-37.5" width="450" fill="#c7a615" y="-37.499999" height="449.999989" fill-opacity="1"/><g clip-path="url(#b855baa1ce)"><path fill="#e2676d" d="M 197.992188 272.664062 L 197.992188 299.117188 C 199.875 298.992188 201.746094 298.84375 203.59375 298.628906 C 205.804688 308.367188 209.085938 321.496094 210.945312 322.285156 L 242.984375 322.285156 C 242.984375 322.285156 249.164062 321.128906 256.753906 279.179688 C 256.929688 276.957031 256.765625 274.785156 256.339844 272.664062 L 197.992188 272.664062 " fill-opacity="1" fill-rule="nonzero"/></g><g clip-path="url(#468d3ac9d4)"><path fill="#e2676d" d="M 120.820312 272.664062 L 120.820312 299.117188 C 122.707031 298.992188 124.578125 298.84375 126.425781 298.628906 C 128.625 308.367188 131.902344 321.496094 133.777344 322.285156 L 165.8125 322.285156 C 165.8125 322.285156 171.996094 321.128906 179.585938 279.179688 C 179.761719 276.957031 179.597656 274.785156 179.15625 272.664062 L 120.820312 272.664062 " fill-opacity="1" fill-rule="nonzero"/></g><g clip-path="url(#614d318df2)"><path fill="#f7938e" d="M 69.847656 189.601562 C 63.730469 184.980469 67.828125 164.425781 75.402344 168.84375 C 83.605469 173.625 69.847656 189.601562 69.847656 189.601562 Z M 75.402344 193.015625 C 75.402344 193.015625 93.207031 168.980469 75.402344 163.585938 C 67.425781 161.164062 62.3125 168.554688 61.304688 176.375 C 60.3125 184.140625 65.148438 191.59375 65.148438 191.59375 C 53.039062 196.664062 45.925781 183 45.925781 183 C 50.199219 205.839844 69.847656 199.414062 69.847656 199.414062 C 75.402344 210.933594 84.375 208.800781 84.375 208.800781 L 84.375 201.121094 C 77.539062 198.988281 75.402344 193.015625 75.402344 193.015625 " fill-opacity="1" fill-rule="nonzero"/></g><g clip-path="url(#68a5922042)"><path fill="#f7938e" d="M 311.332031 248.179688 C 311.332031 248.179688 315.175781 211.074219 311.332031 208.9375 C 307.488281 206.792969 306.207031 212.929688 306.207031 212.929688 L 285.363281 201.472656 C 284.570312 195.308594 283.050781 189.347656 280.863281 183.625 C 280.863281 183.625 289.871094 129.878906 280.863281 129.878906 C 273.300781 129.863281 258.601562 136.855469 247.808594 142.578125 C 230.21875 130.367188 207.839844 123.050781 183.46875 123.050781 C 126.851562 123.050781 80.957031 162.53125 80.957031 211.222656 C 80.957031 236.785156 93.609375 259.800781 113.824219 275.902344 C 121.664062 321.066406 128.160156 322.285156 128.160156 322.285156 L 160.199219 322.285156 C 162.082031 321.480469 165.414062 308.105469 167.609375 298.339844 C 172.789062 299.03125 178.078125 299.394531 183.46875 299.394531 C 188.078125 299.394531 192.613281 299.132812 197.046875 298.628906 C 199.246094 308.367188 202.539062 321.496094 204.398438 322.285156 L 236.4375 322.285156 C 236.4375 322.285156 242.617188 321.128906 250.207031 279.179688 C 250.207031 279.179688 310.027344 264.546875 311.332031 248.179688 " fill-opacity="1" fill-rule="nonzero"/></g><path fill="#faba8a" d="M 280.011719 143.957031 L 264.203125 158.25 L 276.164062 176.375 Z M 280.011719 143.957031 " fill-opacity="1" fill-rule="nonzero"/><path fill="#663132" d="M 277.460938 201.007812 C 277.460938 205.398438 275.058594 208.964844 272.105469 208.964844 C 269.140625 208.964844 266.742188 205.398438 266.742188 201.007812 C 266.742188 196.617188 269.140625 193.050781 272.105469 193.050781 C 275.058594 193.050781 277.460938 196.617188 277.460938 201.007812 " fill-opacity="1" fill-rule="nonzero"/><g clip-path="url(#7115e45475)"><path fill="#f08585" d="M 310.1875 251.65625 C 273.777344 255.972656 134.90625 266.339844 86.746094 181.945312 C 83.003906 191.105469 80.957031 200.957031 80.957031 211.222656 C 80.957031 236.785156 93.609375 259.800781 113.824219 275.902344 C 121.664062 321.066406 128.160156 322.285156 128.160156 322.285156 L 160.199219 322.285156 C 162.082031 321.480469 165.414062 308.105469 167.609375 298.339844 C 172.789062 299.03125 178.078125 299.394531 183.46875 299.394531 C 188.078125 299.394531 192.613281 299.132812 197.046875 298.628906 C 199.246094 308.367188 202.539062 321.496094 204.398438 322.285156 L 236.4375 322.285156 C 236.4375 322.285156 242.617188 321.128906 250.207031 279.179688 C 250.207031 279.179688 301.769531 266.554688 310.1875 251.65625 " fill-opacity="1" fill-rule="nonzero"/></g><path stroke-linecap="butt" transform="matrix(0.125642, 0, 0, -0.125494, -87.630079, 446.800195)" fill="none" stroke-linejoin="miter" d="M 1965.109913 2461.984865 C 1965.109913 2461.984865 2150.906216 2516.394849 2395.71212 2461.984865 " stroke="#cc494b" stroke-width="47.596001" stroke-opacity="1" stroke-miterlimit="10"/><path fill="#f68f34" d="M 206.636719 114.316406 C 206.636719 125.523438 197.539062 134.609375 186.320312 134.609375 C 175.097656 134.609375 166.003906 125.523438 166.003906 114.316406 C 166.003906 103.097656 175.097656 94.023438 186.320312 94.023438 C 197.539062 94.023438 206.636719 103.097656 206.636719 114.316406 " fill-opacity="1" fill-rule="nonzero"/><path fill="#fabb34" d="M 202.0625 114.316406 C 202.0625 123 195.011719 130.039062 186.320312 130.039062 C 177.625 130.039062 170.574219 123 170.574219 114.316406 C 170.574219 105.632812 177.625 98.578125 186.320312 98.578125 C 195.011719 98.578125 202.0625 105.632812 202.0625 114.316406 " fill-opacity="1" fill-rule="nonzero"/><path stroke-linecap="round" transform="matrix(0.125642, 0, 0, -0.125494, -87.630079, 446.800195)" fill="none" stroke-linejoin="miter" d="M 2222.289802 2691.888838 C 2222.289802 2691.888838 2219.989111 2718.689179 2184.701494 2721.303847 C 2156.595761 2723.389355 2139.806939 2713.490971 2136.791169 2694.690267 C 2136.791169 2694.690267 2132.811596 2667.889926 2149.600418 2659.298876 C 2169.31174 2648.995841 2223.999774 2647.688507 2224.590492 2611.394433 C 2224.590492 2611.394433 2226.797911 2579.084614 2181.810085 2579.084614 C 2181.810085 2579.084614 2138.40787 2577.901788 2136.200451 2605.0134 " stroke="#f68f34" stroke-width="20.768" stroke-opacity="1" stroke-miterlimit="10"/><path stroke-linecap="round" transform="matrix(0.125642, 0, 0, -0.125494, -87.630079, 446.800195)" fill="none" stroke-linejoin="miter" d="M 2161.694589 2744.711346 L 2161.694589 2719.809751 " stroke="#f68f34" stroke-width="20.768" stroke-opacity="1" stroke-miterlimit="10"/><path stroke-linecap="round" transform="matrix(0.125642, 0, 0, -0.125494, -87.630079, 446.800195)" fill="none" stroke-linejoin="miter" d="M 2193.406809 2744.711346 L 2193.406809 2719.809751 " stroke="#f68f34" stroke-width="20.768" stroke-opacity="1" stroke-miterlimit="10"/><path stroke-linecap="round" transform="matrix(0.125642, 0, 0, -0.125494, -87.630079, 446.800195)" fill="none" stroke-linejoin="miter" d="M 2164.492726 2579.084614 L 2164.492726 2554.307527 " stroke="#f68f34" stroke-width="20.768" stroke-opacity="1" stroke-miterlimit="10"/><path stroke-linecap="round" transform="matrix(0.125642, 0, 0, -0.125494, -87.630079, 446.800195)" fill="none" stroke-linejoin="miter" d="M 2196.204946 2579.084614 L 2196.204946 2554.307527 " stroke="#f68f34" stroke-width="20.768" stroke-opacity="1" stroke-miterlimit="10"/><path fill="#f68f34" d="M 236.273438 78.289062 C 236.273438 89.492188 227.175781 98.578125 215.957031 98.578125 C 204.738281 98.578125 195.640625 89.492188 195.640625 78.289062 C 195.640625 67.082031 204.738281 57.996094 215.957031 57.996094 C 227.175781 57.996094 236.273438 67.082031 236.273438 78.289062 " fill-opacity="1" fill-rule="nonzero"/><path fill="#fabb34" d="M 231.699219 78.289062 C 231.699219 86.984375 224.652344 94.023438 215.957031 94.023438 C 207.261719 94.023438 200.214844 86.984375 200.214844 78.289062 C 200.214844 69.601562 207.261719 62.5625 215.957031 62.5625 C 224.652344 62.5625 231.699219 69.601562 231.699219 78.289062 " fill-opacity="1" fill-rule="nonzero"/><g clip-path="url(#1e14bab82b)"><path stroke-linecap="round" transform="matrix(0.125642, 0, 0, -0.125494, -87.630079, 446.800195)" fill="none" stroke-linejoin="miter" d="M 2458.203848 2978.910844 C 2458.203848 2978.910844 2455.903158 3005.711185 2420.58445 3008.294725 C 2392.509808 3010.411361 2375.689895 3000.512977 2372.705215 2981.712273 C 2372.705215 2981.712273 2368.694552 2954.911932 2385.514465 2946.289755 C 2405.194696 2936.111228 2459.913821 2934.710513 2460.504539 2898.385312 C 2460.504539 2898.385312 2462.711958 2866.10662 2417.693041 2866.10662 C 2417.693041 2866.10662 2374.290826 2864.892667 2372.114497 2892.004278 " stroke="#f68f34" stroke-width="20.768" stroke-opacity="1" stroke-miterlimit="10"/></g><path stroke-linecap="round" transform="matrix(0.125642, 0, 0, -0.125494, -87.630079, 446.800195)" fill="none" stroke-linejoin="miter" d="M 2397.608635 3031.608843 L 2397.608635 3006.80063 " stroke="#f68f34" stroke-width="20.768" stroke-opacity="1" stroke-miterlimit="10"/><path stroke-linecap="round" transform="matrix(0.125642, 0, 0, -0.125494, -87.630079, 446.800195)" fill="none" stroke-linejoin="miter" d="M 2429.289765 3031.608843 L 2429.289765 3006.80063 " stroke="#f68f34" stroke-width="20.768" stroke-opacity="1" stroke-miterlimit="10"/><path stroke-linecap="round" transform="matrix(0.125642, 0, 0, -0.125494, -87.630079, 446.800195)" fill="none" stroke-linejoin="miter" d="M 2400.406772 2866.10662 L 2400.406772 2841.298406 " stroke="#f68f34" stroke-width="20.768" stroke-opacity="1" stroke-miterlimit="10"/><path stroke-linecap="round" transform="matrix(0.125642, 0, 0, -0.125494, -87.630079, 446.800195)" fill="none" stroke-linejoin="miter" d="M 2432.087902 2866.10662 L 2432.087902 2841.298406 " stroke="#f68f34" stroke-width="20.768" stroke-opacity="1" stroke-miterlimit="10"/><g clip-path="url(#64fabcf5e1)"><path fill="#f68f34" d="M 192.878906 57.996094 C 192.878906 69.203125 183.78125 78.289062 172.5625 78.289062 C 161.339844 78.289062 152.257812 69.203125 152.257812 57.996094 C 152.257812 46.789062 161.339844 37.707031 172.5625 37.707031 C 183.78125 37.707031 192.878906 46.789062 192.878906 57.996094 " fill-opacity="1" fill-rule="nonzero"/></g><path fill="#fabb34" d="M 188.304688 57.996094 C 188.304688 66.679688 181.269531 73.730469 172.5625 73.730469 C 163.867188 73.730469 156.816406 66.679688 156.816406 57.996094 C 156.816406 49.3125 163.867188 42.269531 172.5625 42.269531 C 181.269531 42.269531 188.304688 49.3125 188.304688 57.996094 " fill-opacity="1" fill-rule="nonzero"/><g clip-path="url(#6f5605e31b)"><path stroke-linecap="round" transform="matrix(0.125642, 0, 0, -0.125494, -87.630079, 446.800195)" fill="none" stroke-linejoin="miter" d="M 2112.789371 3140.615574 C 2112.789371 3140.615574 2110.48868 3167.384788 2075.201062 3169.999456 C 2047.09533 3172.209472 2030.306507 3162.186581 2027.290737 3143.385877 C 2027.290737 3143.385877 2023.404436 3116.585535 2040.099987 3107.994485 C 2059.811308 3097.69145 2114.499343 3096.415244 2115.090061 3060.090042 C 2115.090061 3060.090042 2117.29748 3027.81135 2072.309654 3027.81135 C 2072.309654 3027.81135 2029.00071 3026.597398 2026.793291 3053.80239 " stroke="#f68f34" stroke-width="20.768" stroke-opacity="1" stroke-miterlimit="10"/></g><path stroke-linecap="round" transform="matrix(0.125642, 0, 0, -0.125494, -87.630079, 446.800195)" fill="none" stroke-linejoin="miter" d="M 2052.194157 3193.406955 L 2052.194157 3168.50536 " stroke="#f68f34" stroke-width="20.768" stroke-opacity="1" stroke-miterlimit="10"/><path stroke-linecap="round" transform="matrix(0.125642, 0, 0, -0.125494, -87.630079, 446.800195)" fill="none" stroke-linejoin="miter" d="M 2083.906378 3193.406955 L 2083.906378 3168.50536 " stroke="#f68f34" stroke-width="20.768" stroke-opacity="1" stroke-miterlimit="10"/><path stroke-linecap="round" transform="matrix(0.125642, 0, 0, -0.125494, -87.630079, 446.800195)" fill="none" stroke-linejoin="miter" d="M 2055.085566 3027.81135 L 2055.085566 3003.003137 " stroke="#f68f34" stroke-width="20.768" stroke-opacity="1" stroke-miterlimit="10"/><path stroke-linecap="round" transform="matrix(0.125642, 0, 0, -0.125494, -87.630079, 446.800195)" fill="none" stroke-linejoin="miter" d="M 2086.797786 3027.81135 L 2086.797786 3003.003137 " stroke="#f68f34" stroke-width="20.768" stroke-opacity="1" stroke-miterlimit="10"/></svg>