<svg xmlns="http://www.w3.org/2000/svg" xmlns:xlink="http://www.w3.org/1999/xlink" width="500" zoomAndPan="magnify" viewBox="0 0 375 374.999991" height="500" preserveAspectRatio="xMidYMid meet" version="1.0"><defs><g/><clipPath id="d29c0dafc1"><path d="M 115 311 L 255 311 L 255 331.460938 L 115 331.460938 Z M 115 311 " clip-rule="nonzero"/></clipPath><clipPath id="d199dfdfe0"><path d="M 195 311 L 255 311 L 255 331.460938 L 195 331.460938 Z M 195 311 " clip-rule="nonzero"/></clipPath><clipPath id="bab76d5892"><path d="M 169 43.460938 L 201 43.460938 L 201 84 L 169 84 Z M 169 43.460938 " clip-rule="nonzero"/></clipPath><clipPath id="bc88305c27"><path d="M 180 43.460938 L 201 43.460938 L 201 84 L 180 84 Z M 180 43.460938 " clip-rule="nonzero"/></clipPath></defs><rect x="-37.5" width="450" fill="#ffffff" y="-37.499999" height="449.999989" fill-opacity="1"/><rect x="-37.5" width="450" fill="#3eb173" y="-37.499999" height="449.999989" fill-opacity="1"/><path fill="#91562f" d="M 274.703125 117.976562 C 273.722656 117.976562 272.761719 117.691406 271.949219 117.140625 C 263.058594 111.203125 252.605469 108.042969 241.917969 108.046875 L 128.675781 108.046875 C 117.976562 108.039062 107.519531 111.203125 98.621094 117.140625 C 97.136719 118.121094 95.246094 118.242188 93.652344 117.457031 L 73.78125 107.527344 L 78.222656 98.636719 L 95.613281 107.316406 C 105.585938 101.292969 117.023438 98.109375 128.675781 98.113281 L 241.917969 98.113281 C 253.585938 98.101562 265.03125 101.285156 275.015625 107.316406 L 292.378906 98.636719 L 296.820312 107.527344 L 276.949219 117.457031 C 276.253906 117.804688 275.484375 117.984375 274.703125 117.976562 Z M 274.703125 117.976562 " fill-opacity="1" fill-rule="nonzero"/><g clip-path="url(#d29c0dafc1)"><path fill="#f9b44d" d="M 254.835938 331.503906 L 115.734375 331.503906 C 115.734375 320.535156 124.632812 311.640625 135.605469 311.640625 L 234.964844 311.640625 C 245.9375 311.640625 254.835938 320.535156 254.835938 331.503906 Z M 254.835938 331.503906 " fill-opacity="1" fill-rule="nonzero"/></g><g clip-path="url(#d199dfdfe0)"><path fill="#fa982f" d="M 234.964844 311.640625 L 195.21875 311.640625 C 206.195312 311.640625 215.09375 320.535156 215.09375 331.503906 L 254.835938 331.503906 C 254.835938 320.535156 245.9375 311.640625 234.964844 311.640625 Z M 234.964844 311.640625 " fill-opacity="1" fill-rule="nonzero"/></g><path fill="#f9b44d" d="M 215.09375 311.640625 L 155.476562 311.640625 L 175.347656 291.78125 L 195.21875 291.78125 Z M 215.09375 311.640625 " fill-opacity="1" fill-rule="nonzero"/><path fill="#91562f" d="M 175.347656 291.78125 L 195.21875 291.78125 L 195.21875 83.214844 L 175.347656 83.214844 Z M 175.347656 291.78125 " fill-opacity="1" fill-rule="nonzero"/><g clip-path="url(#bab76d5892)"><path fill="#f9b44d" d="M 195.21875 83.214844 L 175.347656 83.214844 L 170.230469 62.761719 C 168.152344 54.457031 173.203125 46.03125 181.519531 43.953125 C 182.75 43.644531 184.015625 43.488281 185.285156 43.488281 C 193.851562 43.488281 200.800781 50.433594 200.800781 58.996094 C 200.800781 60.273438 200.644531 61.53125 200.335938 62.761719 Z M 195.21875 83.214844 " fill-opacity="1" fill-rule="nonzero"/></g><g clip-path="url(#bc88305c27)"><path fill="#fa982f" d="M 185.285156 43.492188 C 183.699219 43.515625 182.128906 43.78125 180.625 44.289062 C 188.433594 46.726562 192.988281 54.828125 191.015625 62.765625 L 185.90625 83.21875 L 195.21875 83.21875 L 200.335938 62.765625 C 202.417969 54.457031 197.363281 46.03125 189.046875 43.957031 C 187.824219 43.648438 186.554688 43.492188 185.285156 43.492188 Z M 185.285156 43.492188 " fill-opacity="1" fill-rule="nonzero"/></g><path fill="#f9b44d" d="M 160.445312 88.183594 L 210.121094 88.183594 L 210.121094 78.25 L 160.445312 78.25 Z M 160.445312 88.183594 " fill-opacity="1" fill-rule="nonzero"/><path fill="#f0e4d6" d="M 143.921875 219.816406 L 95.863281 115 L 47.808594 219.816406 C 46.664062 222.308594 43.710938 223.402344 41.21875 222.257812 C 38.726562 221.117188 37.632812 218.171875 38.773438 215.675781 L 91.347656 101.015625 C 92.492188 98.515625 95.441406 97.425781 97.9375 98.566406 C 99.015625 99.0625 99.882812 99.925781 100.378906 101.015625 L 152.957031 215.675781 C 154.097656 218.171875 153.003906 221.117188 150.511719 222.257812 C 148.015625 223.40625 145.070312 222.308594 143.921875 219.816406 Z M 143.921875 219.816406 " fill-opacity="1" fill-rule="nonzero"/><path fill="#f0e4d6" d="M 322.761719 219.816406 L 274.703125 115 L 226.644531 219.816406 C 225.503906 222.308594 222.554688 223.402344 220.058594 222.257812 C 217.5625 221.117188 216.472656 218.171875 217.613281 215.675781 L 270.1875 101.015625 C 271.332031 98.515625 274.28125 97.425781 276.773438 98.566406 C 277.855469 99.0625 278.722656 99.925781 279.21875 101.015625 L 331.792969 215.675781 C 332.933594 218.171875 331.84375 221.117188 329.351562 222.257812 C 326.855469 223.40625 323.910156 222.308594 322.761719 219.816406 Z M 322.761719 219.816406 " fill-opacity="1" fill-rule="nonzero"/><path fill="#f9b44d" d="M 220.058594 222.257812 L 329.351562 222.257812 C 329.351562 238.714844 316.007812 252.050781 299.542969 252.050781 L 249.863281 252.050781 C 233.40625 252.050781 220.058594 238.714844 220.058594 222.257812 Z M 220.058594 222.257812 " fill-opacity="1" fill-rule="nonzero"/><path fill="#fa982f" d="M 299.542969 222.257812 C 299.542969 238.714844 286.199219 252.050781 269.734375 252.050781 L 299.542969 252.050781 C 316.007812 252.050781 329.351562 238.714844 329.351562 222.257812 Z M 299.542969 222.257812 " fill-opacity="1" fill-rule="nonzero"/><path fill="#f9b44d" d="M 41.21875 222.257812 L 150.511719 222.257812 C 150.511719 238.714844 137.164062 252.050781 120.703125 252.050781 L 71.027344 252.050781 C 54.570312 252.050781 41.21875 238.714844 41.21875 222.257812 Z M 41.21875 222.257812 " fill-opacity="1" fill-rule="nonzero"/><path fill="#fa982f" d="M 120.703125 222.257812 C 120.703125 238.714844 107.359375 252.050781 90.898438 252.050781 L 120.703125 252.050781 C 137.164062 252.050781 150.511719 238.714844 150.511719 222.257812 Z M 120.703125 222.257812 " fill-opacity="1" fill-rule="nonzero"/><g fill="#000000" fill-opacity="1"><g transform="translate(51.683084, 0.900182)"><g><path d="M 0.328125 0.015625 C 0.296875 0.015625 0.265625 0.0078125 0.234375 0 C 0.210938 -0.0195312 0.191406 -0.0390625 0.171875 -0.0625 L 0.15625 -0.0625 C 0.164062 -0.03125 0.171875 -0.00390625 0.171875 0.015625 L 0.171875 0.234375 L 0.09375 0.234375 L 0.09375 -0.53125 L 0.15625 -0.53125 L 0.15625 -0.46875 L 0.171875 -0.46875 C 0.191406 -0.488281 0.210938 -0.503906 0.234375 -0.515625 C 0.265625 -0.535156 0.296875 -0.546875 0.328125 -0.546875 C 0.398438 -0.546875 0.457031 -0.519531 0.5 -0.46875 C 0.539062 -0.425781 0.5625 -0.359375 0.5625 -0.265625 C 0.5625 -0.179688 0.539062 -0.113281 0.5 -0.0625 C 0.457031 -0.0078125 0.398438 0.015625 0.328125 0.015625 Z M 0.328125 -0.46875 C 0.265625 -0.46875 0.222656 -0.453125 0.203125 -0.421875 C 0.179688 -0.398438 0.171875 -0.351562 0.171875 -0.28125 L 0.171875 -0.265625 C 0.171875 -0.191406 0.179688 -0.140625 0.203125 -0.109375 C 0.234375 -0.078125 0.273438 -0.0625 0.328125 -0.0625 C 0.367188 -0.0625 0.398438 -0.078125 0.421875 -0.109375 C 0.453125 -0.148438 0.46875 -0.203125 0.46875 -0.265625 C 0.46875 -0.335938 0.453125 -0.390625 0.421875 -0.421875 C 0.398438 -0.453125 0.367188 -0.46875 0.328125 -0.46875 Z M 0.328125 -0.46875 "/></g></g><g transform="translate(52.296001, 0.900182)"><g><path d="M 0.328125 -0.546875 C 0.347656 -0.546875 0.367188 -0.546875 0.390625 -0.546875 L 0.390625 -0.46875 C 0.359375 -0.46875 0.335938 -0.46875 0.328125 -0.46875 C 0.285156 -0.46875 0.25 -0.445312 0.21875 -0.40625 C 0.1875 -0.375 0.171875 -0.332031 0.171875 -0.28125 L 0.171875 0 L 0.09375 0 L 0.09375 -0.53125 L 0.15625 -0.53125 L 0.15625 -0.4375 L 0.171875 -0.4375 C 0.191406 -0.46875 0.210938 -0.492188 0.234375 -0.515625 C 0.265625 -0.535156 0.296875 -0.546875 0.328125 -0.546875 Z M 0.328125 -0.546875 "/></g></g><g transform="translate(52.704287, 0.900182)"><g><path d="M 0.3125 0.015625 C 0.226562 0.015625 0.164062 -0.0078125 0.125 -0.0625 C 0.0820312 -0.113281 0.0625 -0.179688 0.0625 -0.265625 C 0.0625 -0.347656 0.0820312 -0.414062 0.125 -0.46875 C 0.164062 -0.519531 0.222656 -0.546875 0.296875 -0.546875 C 0.359375 -0.546875 0.410156 -0.519531 0.453125 -0.46875 C 0.492188 -0.425781 0.515625 -0.367188 0.515625 -0.296875 L 0.515625 -0.25 L 0.140625 -0.25 C 0.140625 -0.1875 0.15625 -0.140625 0.1875 -0.109375 C 0.21875 -0.078125 0.257812 -0.0625 0.3125 -0.0625 C 0.375 -0.0625 0.429688 -0.0703125 0.484375 -0.09375 L 0.484375 -0.03125 C 0.453125 -0.0078125 0.421875 0 0.390625 0 C 0.367188 0.0078125 0.34375 0.015625 0.3125 0.015625 Z M 0.296875 -0.484375 C 0.242188 -0.484375 0.207031 -0.46875 0.1875 -0.4375 C 0.164062 -0.40625 0.148438 -0.363281 0.140625 -0.3125 L 0.421875 -0.3125 C 0.421875 -0.363281 0.410156 -0.40625 0.390625 -0.4375 C 0.367188 -0.46875 0.335938 -0.484375 0.296875 -0.484375 Z M 0.296875 -0.484375 "/></g></g><g transform="translate(53.265436, 0.900182)"><g><path d="M 0.015625 0.234375 C -0.015625 0.234375 -0.0351562 0.234375 -0.046875 0.234375 L -0.046875 0.15625 C -0.0234375 0.164062 -0.00390625 0.171875 0.015625 0.171875 C 0.0351562 0.171875 0.0507812 0.160156 0.0625 0.140625 C 0.0820312 0.128906 0.09375 0.113281 0.09375 0.09375 L 0.09375 -0.53125 L 0.171875 -0.53125 L 0.171875 0.078125 C 0.171875 0.179688 0.117188 0.234375 0.015625 0.234375 Z M 0.078125 -0.6875 C 0.078125 -0.695312 0.0820312 -0.707031 0.09375 -0.71875 C 0.101562 -0.726562 0.113281 -0.734375 0.125 -0.734375 C 0.132812 -0.734375 0.144531 -0.726562 0.15625 -0.71875 C 0.164062 -0.707031 0.171875 -0.695312 0.171875 -0.6875 C 0.171875 -0.664062 0.164062 -0.648438 0.15625 -0.640625 C 0.144531 -0.628906 0.132812 -0.625 0.125 -0.625 C 0.113281 -0.625 0.101562 -0.628906 0.09375 -0.640625 C 0.0820312 -0.648438 0.078125 -0.664062 0.078125 -0.6875 Z M 0.078125 -0.6875 "/></g></g><g transform="translate(53.518417, 0.900182)"><g><path d="M 0.15625 -0.53125 L 0.15625 -0.1875 C 0.15625 -0.144531 0.164062 -0.113281 0.1875 -0.09375 C 0.207031 -0.0703125 0.238281 -0.0625 0.28125 -0.0625 C 0.34375 -0.0625 0.382812 -0.078125 0.40625 -0.109375 C 0.4375 -0.140625 0.453125 -0.1875 0.453125 -0.25 L 0.453125 -0.53125 L 0.53125 -0.53125 L 0.53125 0 L 0.46875 0 L 0.453125 -0.078125 L 0.4375 -0.078125 C 0.425781 -0.046875 0.40625 -0.0195312 0.375 0 C 0.34375 0.0078125 0.3125 0.015625 0.28125 0.015625 C 0.207031 0.015625 0.15625 0 0.125 -0.03125 C 0.09375 -0.0625 0.078125 -0.113281 0.078125 -0.1875 L 0.078125 -0.53125 Z M 0.15625 -0.53125 "/></g></g><g transform="translate(54.132311, 0.900182)"><g><path d="M 0.328125 -0.546875 C 0.398438 -0.546875 0.457031 -0.519531 0.5 -0.46875 C 0.539062 -0.425781 0.5625 -0.359375 0.5625 -0.265625 C 0.5625 -0.179688 0.539062 -0.113281 0.5 -0.0625 C 0.457031 -0.0078125 0.398438 0.015625 0.328125 0.015625 C 0.296875 0.015625 0.265625 0.0078125 0.234375 0 C 0.210938 -0.0195312 0.191406 -0.0390625 0.171875 -0.0625 L 0.15625 -0.0625 L 0.140625 0 L 0.09375 0 L 0.09375 -0.765625 L 0.171875 -0.765625 L 0.171875 -0.578125 C 0.171875 -0.535156 0.164062 -0.5 0.15625 -0.46875 L 0.171875 -0.46875 C 0.203125 -0.519531 0.253906 -0.546875 0.328125 -0.546875 Z M 0.328125 -0.46875 C 0.265625 -0.46875 0.222656 -0.453125 0.203125 -0.421875 C 0.179688 -0.390625 0.171875 -0.335938 0.171875 -0.265625 C 0.171875 -0.191406 0.179688 -0.140625 0.203125 -0.109375 C 0.234375 -0.078125 0.273438 -0.0625 0.328125 -0.0625 C 0.378906 -0.0625 0.414062 -0.078125 0.4375 -0.109375 C 0.457031 -0.148438 0.46875 -0.203125 0.46875 -0.265625 C 0.46875 -0.335938 0.457031 -0.390625 0.4375 -0.421875 C 0.414062 -0.453125 0.378906 -0.46875 0.328125 -0.46875 Z M 0.328125 -0.46875 "/></g></g><g transform="translate(54.745228, 0.900182)"><g><path d="M 0.171875 0 L 0.09375 0 L 0.09375 -0.53125 L 0.171875 -0.53125 Z M 0.078125 -0.6875 C 0.078125 -0.695312 0.0820312 -0.707031 0.09375 -0.71875 C 0.101562 -0.726562 0.113281 -0.734375 0.125 -0.734375 C 0.132812 -0.734375 0.144531 -0.726562 0.15625 -0.71875 C 0.164062 -0.707031 0.171875 -0.695312 0.171875 -0.6875 C 0.171875 -0.664062 0.164062 -0.648438 0.15625 -0.640625 C 0.144531 -0.628906 0.132812 -0.625 0.125 -0.625 C 0.113281 -0.625 0.101562 -0.628906 0.09375 -0.640625 C 0.0820312 -0.648438 0.078125 -0.664062 0.078125 -0.6875 Z M 0.078125 -0.6875 "/></g></g><g transform="translate(54.998209, 0.900182)"><g><path d="M 0.171875 0 L 0.09375 0 L 0.09375 -0.765625 L 0.171875 -0.765625 Z M 0.171875 0 "/></g></g><g transform="translate(55.25119, 0.900182)"><g><path d="M 0.421875 0 L 0.40625 -0.078125 L 0.390625 -0.078125 C 0.367188 -0.046875 0.34375 -0.0195312 0.3125 0 C 0.289062 0.0078125 0.257812 0.015625 0.21875 0.015625 C 0.164062 0.015625 0.125 0 0.09375 -0.03125 C 0.0625 -0.0625 0.046875 -0.0976562 0.046875 -0.140625 C 0.046875 -0.253906 0.132812 -0.3125 0.3125 -0.3125 L 0.390625 -0.328125 L 0.390625 -0.359375 C 0.390625 -0.398438 0.378906 -0.429688 0.359375 -0.453125 C 0.347656 -0.472656 0.320312 -0.484375 0.28125 -0.484375 C 0.238281 -0.484375 0.1875 -0.46875 0.125 -0.4375 L 0.109375 -0.5 C 0.128906 -0.507812 0.15625 -0.519531 0.1875 -0.53125 C 0.21875 -0.539062 0.25 -0.546875 0.28125 -0.546875 C 0.351562 -0.546875 0.398438 -0.53125 0.421875 -0.5 C 0.453125 -0.46875 0.46875 -0.421875 0.46875 -0.359375 L 0.46875 0 Z M 0.234375 -0.0625 C 0.285156 -0.0625 0.320312 -0.0703125 0.34375 -0.09375 C 0.375 -0.125 0.390625 -0.164062 0.390625 -0.21875 L 0.390625 -0.265625 L 0.3125 -0.265625 C 0.25 -0.253906 0.203125 -0.238281 0.171875 -0.21875 C 0.140625 -0.207031 0.125 -0.179688 0.125 -0.140625 C 0.125 -0.117188 0.132812 -0.0976562 0.15625 -0.078125 C 0.175781 -0.0664062 0.203125 -0.0625 0.234375 -0.0625 Z M 0.234375 -0.0625 "/></g></g><g transform="translate(55.807455, 0.900182)"><g><path d="M 0.453125 -0.078125 C 0.410156 -0.015625 0.351562 0.015625 0.28125 0.015625 C 0.207031 0.015625 0.148438 -0.0078125 0.109375 -0.0625 C 0.078125 -0.113281 0.0625 -0.179688 0.0625 -0.265625 C 0.0625 -0.359375 0.078125 -0.425781 0.109375 -0.46875 C 0.148438 -0.519531 0.207031 -0.546875 0.28125 -0.546875 C 0.351562 -0.546875 0.40625 -0.519531 0.4375 -0.46875 L 0.453125 -0.46875 L 0.453125 -0.765625 L 0.53125 -0.765625 L 0.53125 0 L 0.46875 0 Z M 0.28125 -0.0625 C 0.34375 -0.0625 0.382812 -0.078125 0.40625 -0.109375 C 0.4375 -0.140625 0.453125 -0.1875 0.453125 -0.25 L 0.453125 -0.265625 C 0.453125 -0.335938 0.4375 -0.390625 0.40625 -0.421875 C 0.382812 -0.460938 0.34375 -0.484375 0.28125 -0.484375 C 0.238281 -0.484375 0.203125 -0.460938 0.171875 -0.421875 C 0.148438 -0.378906 0.140625 -0.328125 0.140625 -0.265625 C 0.140625 -0.191406 0.148438 -0.140625 0.171875 -0.109375 C 0.203125 -0.078125 0.238281 -0.0625 0.28125 -0.0625 Z M 0.28125 -0.0625 "/></g></g><g transform="translate(56.420372, 0.900182)"><g><path d="M 0.546875 -0.265625 C 0.546875 -0.179688 0.523438 -0.113281 0.484375 -0.0625 C 0.441406 -0.0078125 0.378906 0.015625 0.296875 0.015625 C 0.253906 0.015625 0.210938 0.00390625 0.171875 -0.015625 C 0.128906 -0.046875 0.0976562 -0.0820312 0.078125 -0.125 C 0.0664062 -0.164062 0.0625 -0.210938 0.0625 -0.265625 C 0.0625 -0.359375 0.0820312 -0.425781 0.125 -0.46875 C 0.164062 -0.519531 0.222656 -0.546875 0.296875 -0.546875 C 0.378906 -0.546875 0.441406 -0.519531 0.484375 -0.46875 C 0.523438 -0.414062 0.546875 -0.347656 0.546875 -0.265625 Z M 0.140625 -0.265625 C 0.140625 -0.203125 0.148438 -0.148438 0.171875 -0.109375 C 0.203125 -0.078125 0.242188 -0.0625 0.296875 -0.0625 C 0.347656 -0.0625 0.390625 -0.078125 0.421875 -0.109375 C 0.453125 -0.148438 0.46875 -0.203125 0.46875 -0.265625 C 0.46875 -0.335938 0.453125 -0.390625 0.421875 -0.421875 C 0.390625 -0.453125 0.347656 -0.46875 0.296875 -0.46875 C 0.242188 -0.46875 0.203125 -0.453125 0.171875 -0.421875 C 0.148438 -0.390625 0.140625 -0.335938 0.140625 -0.265625 Z M 0.140625 -0.265625 "/></g></g></g></svg>