<svg xmlns="http://www.w3.org/2000/svg" xmlns:xlink="http://www.w3.org/1999/xlink" width="500" zoomAndPan="magnify" viewBox="0 0 375 374.999991" height="500" preserveAspectRatio="xMidYMid meet" version="1.0"><defs><clipPath id="4ef4f23e7e"><path d="M 90 27.199219 L 199 27.199219 L 199 121 L 90 121 Z M 90 27.199219 " clip-rule="nonzero"/></clipPath><clipPath id="fcbe05ef0a"><path d="M 187 200 L 352 200 L 352 326.449219 L 187 326.449219 Z M 187 200 " clip-rule="nonzero"/></clipPath></defs><rect x="-37.5" width="450" fill="#ffffff" y="-37.499999" height="449.999989" fill-opacity="1"/><rect x="-37.5" width="450" fill="#9284a8" y="-37.499999" height="449.999989" fill-opacity="1"/><path fill="#2c5189" d="M 256.21875 217.242188 C 253.605469 210.449219 245.75 206.777344 245.75 206.777344 L 178.699219 190.550781 L 145.023438 201.957031 L 111.34375 190.550781 L 44.308594 206.777344 C 44.308594 206.777344 36.453125 210.449219 33.839844 217.242188 C 31.210938 224.046875 22.839844 311.71875 22.839844 311.71875 L 267.21875 311.71875 C 267.207031 311.71875 258.824219 224.046875 256.210938 217.242188 " fill-opacity="1" fill-rule="nonzero"/><path fill="#040505" d="M 256.21875 217.242188 L 259.601562 215.933594 C 258.773438 213.773438 257.554688 211.929688 256.25 210.390625 C 254.273438 208.082031 252.082031 206.398438 250.367188 205.265625 C 248.652344 204.136719 247.40625 203.539062 247.289062 203.484375 C 247.042969 203.378906 246.851562 203.308594 246.605469 203.25 L 179.554688 187.023438 C 178.886719 186.867188 178.191406 186.894531 177.539062 187.113281 L 145.023438 198.128906 L 112.507812 187.113281 C 111.867188 186.894531 111.171875 186.867188 110.488281 187.023438 L 43.453125 203.25 C 43.207031 203.308594 43.019531 203.378906 42.769531 203.484375 C 42.609375 203.570312 40.449219 204.585938 37.832031 206.589844 C 36.539062 207.589844 35.132812 208.835938 33.8125 210.390625 C 32.503906 211.929688 31.285156 213.773438 30.441406 215.933594 C 30.28125 216.382812 30.164062 216.777344 30.050781 217.226562 C 29.832031 218.082031 29.628906 219.128906 29.394531 220.402344 C 28.566406 225.164062 27.539062 233.132812 26.417969 242.535156 C 23.109375 270.691406 19.226562 311.355469 19.226562 311.371094 C 19.128906 312.398438 19.464844 313.402344 20.148438 314.15625 C 20.84375 314.910156 21.8125 315.34375 22.839844 315.34375 L 267.21875 315.34375 C 268.238281 315.34375 269.210938 314.910156 269.890625 314.15625 C 270.589844 313.402344 270.921875 312.398438 270.820312 311.371094 C 270.820312 311.371094 268.730469 289.441406 266.304688 266.65625 C 265.101562 255.25 263.792969 243.640625 262.632812 234.421875 C 262.066406 229.808594 261.511719 225.804688 261.019531 222.695312 C 260.773438 221.144531 260.554688 219.808594 260.320312 218.707031 C 260.21875 218.15625 260.105469 217.675781 259.988281 217.226562 C 259.886719 216.777344 259.769531 216.382812 259.597656 215.933594 L 256.210938 217.242188 L 252.828125 218.546875 L 252.828125 218.574219 C 252.902344 218.765625 253.089844 219.488281 253.277344 220.492188 C 253.640625 222.363281 254.09375 225.28125 254.585938 228.851562 C 256.3125 241.390625 258.566406 262.230469 260.394531 279.890625 C 261.296875 288.730469 262.109375 296.769531 262.675781 302.605469 C 262.964844 305.519531 263.199219 307.886719 263.355469 309.527344 C 263.515625 311.152344 263.589844 312.066406 263.589844 312.066406 L 267.207031 311.71875 L 267.207031 308.089844 L 22.824219 308.089844 L 22.832031 311.71875 L 26.441406 312.066406 C 26.441406 312.066406 26.570312 310.703125 26.804688 308.292969 C 27.632812 299.859375 29.707031 278.6875 31.871094 258.890625 C 32.960938 248.992188 34.066406 239.445312 35.023438 232.027344 C 35.515625 228.3125 35.96875 225.136719 36.359375 222.753906 C 36.5625 221.550781 36.738281 220.550781 36.898438 219.808594 C 36.984375 219.433594 37.054688 219.128906 37.113281 218.910156 L 37.1875 218.632812 L 37.214844 218.546875 C 37.695312 217.3125 38.4375 216.152344 39.335938 215.078125 C 40.6875 213.496094 42.355469 212.191406 43.679688 211.320312 C 44.347656 210.882812 44.914062 210.550781 45.304688 210.347656 C 45.492188 210.230469 45.652344 210.15625 45.742188 210.113281 L 45.828125 210.070312 L 45.855469 210.054688 L 45.175781 208.632812 L 45.84375 210.054688 L 45.855469 210.054688 L 45.175781 208.632812 L 45.84375 210.054688 L 44.304688 206.777344 L 45.160156 210.304688 L 111.179688 194.324219 L 143.851562 205.398438 C 144.609375 205.644531 145.4375 205.644531 146.191406 205.398438 L 178.867188 194.324219 L 244.886719 210.304688 L 245.742188 206.777344 L 244.203125 210.054688 L 244.609375 209.199219 L 244.1875 210.054688 L 244.203125 210.054688 L 244.609375 209.199219 L 244.1875 210.054688 C 244.261719 210.085938 246.03125 210.957031 247.964844 212.480469 C 249.910156 213.988281 251.929688 216.167969 252.828125 218.546875 L 256.210938 217.242188 " fill-opacity="1" fill-rule="nonzero"/><path fill="#d1e4f1" d="M 97.476562 193.917969 L 145.023438 287.902344 L 188.023438 192.800781 L 145.355469 202.058594 L 97.476562 193.917969 " fill-opacity="1" fill-rule="nonzero"/><path fill="#040505" d="M 97.476562 193.917969 L 94.238281 195.542969 L 141.785156 289.542969 C 142.421875 290.789062 143.699219 291.558594 145.109375 291.53125 C 146.503906 291.5 147.753906 290.675781 148.332031 289.398438 L 191.332031 194.296875 C 191.898438 193.0625 191.710938 191.582031 190.855469 190.523438 C 189.996094 189.464844 188.605469 188.96875 187.253906 189.261719 L 145.269531 198.375 L 98.085938 190.335938 C 96.734375 190.101562 95.355469 190.652344 94.542969 191.757812 C 93.746094 192.859375 93.613281 194.324219 94.238281 195.542969 L 97.476562 193.917969 L 96.851562 197.488281 L 144.746094 205.644531 C 145.195312 205.71875 145.675781 205.703125 146.125 205.617188 L 181.75 197.878906 L 144.847656 279.5 L 100.714844 192.277344 L 97.476562 193.917969 L 96.851562 197.488281 L 97.476562 193.917969 " fill-opacity="1" fill-rule="nonzero"/><path fill="#ee9255" d="M 145.355469 198.925781 L 175.171875 190.027344 C 170.496094 181.917969 167.371094 143.703125 167.371094 143.703125 L 145.34375 151.816406 L 123.339844 143.703125 C 123.339844 143.703125 120.21875 181.917969 115.542969 190.027344 L 145.34375 198.925781 L 145.355469 198.925781 " fill-opacity="1" fill-rule="nonzero"/><path fill="#040505" d="M 145.355469 198.925781 L 146.386719 202.410156 L 176.214844 193.496094 C 177.277344 193.191406 178.132812 192.410156 178.539062 191.363281 C 178.960938 190.335938 178.875 189.171875 178.320312 188.214844 C 177.988281 187.648438 177.464844 186.359375 176.984375 184.6875 C 176.113281 181.757812 175.273438 177.636719 174.546875 173.179688 C 173.429688 166.488281 172.542969 159.03125 171.933594 153.253906 C 171.628906 150.367188 171.378906 147.898438 171.21875 146.15625 C 171.148438 145.285156 171.089844 144.605469 171.046875 144.125 C 171.003906 143.660156 170.988281 143.414062 170.988281 143.414062 C 170.886719 142.28125 170.277344 141.265625 169.316406 140.65625 C 168.359375 140.035156 167.183594 139.902344 166.109375 140.308594 L 145.34375 147.957031 L 124.589844 140.308594 C 123.53125 139.902344 122.339844 140.035156 121.378906 140.65625 C 120.421875 141.265625 119.8125 142.28125 119.726562 143.414062 C 119.726562 143.414062 119.710938 143.558594 119.679688 143.835938 C 119.507812 145.910156 118.664062 155.445312 117.328125 165.328125 C 116.660156 170.277344 115.875 175.3125 115.003906 179.507812 C 114.570312 181.597656 114.105469 183.46875 113.640625 184.992188 C 113.191406 186.515625 112.710938 187.691406 112.390625 188.214844 C 111.839844 189.1875 111.75 190.335938 112.171875 191.363281 C 112.578125 192.410156 113.4375 193.191406 114.511719 193.496094 L 144.3125 202.410156 C 144.644531 202.496094 145.007812 202.554688 145.34375 202.554688 L 145.355469 202.554688 C 145.691406 202.554688 146.066406 202.496094 146.386719 202.410156 L 145.355469 198.925781 L 145.355469 195.296875 L 145.34375 195.296875 L 145.34375 198.925781 L 146.386719 195.457031 L 116.585938 186.546875 L 115.542969 190.027344 L 118.679688 191.84375 C 119.519531 190.378906 120.117188 188.707031 120.710938 186.734375 C 121.714844 183.28125 122.570312 178.984375 123.324219 174.355469 C 125.605469 160.539062 126.957031 144.054688 126.957031 143.996094 L 123.339844 143.703125 L 122.078125 147.117188 L 144.09375 155.226562 C 144.90625 155.53125 145.792969 155.53125 146.605469 155.226562 L 168.621094 147.117188 L 167.371094 143.703125 L 163.757812 144.011719 C 163.757812 144.039062 164.539062 153.632812 165.90625 164.285156 C 166.601562 169.625 167.445312 175.226562 168.417969 180.089844 C 168.910156 182.511719 169.433594 184.761719 170 186.734375 C 170.597656 188.707031 171.191406 190.378906 172.035156 191.84375 L 175.171875 190.027344 L 174.125 186.546875 L 144.3125 195.457031 L 145.355469 198.925781 L 145.355469 195.296875 L 145.355469 198.925781 " fill-opacity="1" fill-rule="nonzero"/><path fill="#f9b57c" d="M 145.398438 47.835938 C 105.59375 47.660156 97.78125 82.214844 100.410156 107.335938 C 100.890625 112.023438 103.632812 132.355469 107.6875 149.726562 C 109.558594 157.78125 121.207031 167.722656 132.300781 174.328125 C 139.273438 178.476562 145.386719 179.636719 145.398438 179.636719 C 145.398438 179.636719 151.515625 178.476562 158.484375 174.328125 C 169.59375 167.722656 181.226562 157.78125 183.101562 149.726562 C 187.152344 132.355469 189.894531 112.023438 190.375 107.335938 C 192.988281 82.214844 182.578125 49.9375 145.398438 47.835938 " fill-opacity="1" fill-rule="nonzero"/><path fill="#040505" d="M 145.398438 47.835938 L 145.414062 44.207031 L 145.082031 44.207031 C 135.84375 44.207031 128.046875 46.007812 121.613281 49.199219 C 116.792969 51.578125 112.753906 54.742188 109.457031 58.414062 C 104.503906 63.929688 101.238281 70.546875 99.191406 77.453125 C 97.140625 84.378906 96.316406 91.621094 96.316406 98.554688 C 96.316406 101.691406 96.488281 104.769531 96.792969 107.714844 C 97.054688 110.179688 97.867188 116.4375 99.132812 124.34375 C 100.382812 132.238281 102.09375 141.746094 104.140625 150.554688 C 104.78125 153.210938 106.089844 155.707031 107.789062 158.128906 C 110.359375 161.757812 113.859375 165.269531 117.808594 168.550781 C 121.742188 171.832031 126.128906 174.878906 130.441406 177.445312 C 134.203125 179.683594 137.703125 181.105469 140.289062 181.976562 C 141.582031 182.410156 142.65625 182.714844 143.425781 182.917969 C 143.800781 183.003906 144.109375 183.078125 144.324219 183.136719 L 144.585938 183.179688 L 144.671875 183.207031 L 144.730469 183.207031 L 144.761719 183.222656 L 144.804688 183.222656 C 144.832031 183.238281 144.832031 183.238281 144.992188 183.25 C 145.296875 183.28125 145.648438 183.28125 145.9375 183.238281 L 146.039062 183.207031 L 146.097656 183.207031 C 146.578125 183.105469 152.953125 181.828125 160.34375 177.445312 C 166.109375 174.007812 171.960938 169.753906 176.753906 165.199219 C 179.148438 162.917969 181.285156 160.554688 183 158.128906 C 184.695312 155.707031 186.003906 153.210938 186.628906 150.554688 C 188.691406 141.746094 190.40625 132.238281 191.652344 124.34375 C 192.929688 116.4375 193.730469 110.167969 193.992188 107.714844 C 194.253906 105.175781 194.382812 102.589844 194.382812 99.964844 C 194.382812 87.554688 191.347656 74.292969 183.621094 63.609375 C 179.773438 58.296875 174.71875 53.652344 168.386719 50.257812 C 162.058594 46.863281 154.476562 44.714844 145.601562 44.222656 L 145.414062 44.207031 L 145.398438 47.835938 L 145.183594 51.460938 C 153.140625 51.914062 159.632812 53.800781 164.945312 56.660156 C 172.933594 60.941406 178.410156 67.457031 181.980469 75.117188 C 185.554688 82.765625 187.136719 91.546875 187.121094 99.964844 C 187.121094 102.34375 187.007812 104.679688 186.773438 106.960938 C 186.542969 109.179688 185.726562 115.417969 184.492188 123.199219 C 183.246094 130.992188 181.558594 140.339844 179.570312 148.902344 C 179.25 150.265625 178.410156 152.050781 177.058594 153.949219 C 175.039062 156.824219 171.933594 159.988281 168.332031 162.976562 C 164.742188 165.96875 160.632812 168.828125 156.625 171.207031 C 153.417969 173.121094 150.382812 174.355469 148.171875 175.097656 C 147.054688 175.472656 146.167969 175.71875 145.558594 175.878906 C 145.269531 175.953125 145.035156 176.011719 144.890625 176.039062 L 144.730469 176.082031 L 144.703125 176.082031 L 144.789062 176.488281 L 144.71875 176.082031 L 144.703125 176.082031 L 144.789062 176.488281 L 144.71875 176.082031 L 145.183594 178.5625 L 144.71875 176.082031 L 145.183594 178.5625 L 144.71875 176.082031 L 145.339844 179.347656 L 144.730469 176.082031 L 144.71875 176.082031 L 145.339844 179.347656 L 144.730469 176.082031 L 145.386719 179.609375 L 144.746094 176.082031 L 144.730469 176.082031 L 145.386719 179.609375 L 144.746094 176.082031 L 145.398438 179.636719 L 144.847656 176.054688 L 144.746094 176.082031 L 145.398438 179.636719 L 144.847656 176.054688 L 145.398438 179.636719 L 145.792969 176.039062 L 145.398438 179.636719 L 145.980469 176.066406 C 145.953125 176.054688 145.953125 176.054688 145.792969 176.039062 L 145.398438 179.636719 L 145.980469 176.066406 L 145.398438 179.550781 L 146.054688 176.082031 L 145.980469 176.066406 L 145.398438 179.550781 L 146.054688 176.082031 L 145.632812 178.332031 L 146.066406 176.082031 L 146.054688 176.082031 L 145.632812 178.332031 L 146.066406 176.082031 C 146.039062 176.082031 140.417969 174.9375 134.160156 171.207031 C 128.816406 168.027344 123.3125 164.023438 119.042969 159.945312 C 116.894531 157.914062 115.078125 155.867188 113.726562 153.949219 C 112.375 152.050781 111.535156 150.265625 111.214844 148.902344 C 109.226562 140.339844 107.539062 130.992188 106.292969 123.199219 C 105.058594 115.417969 104.242188 109.179688 104.011719 106.957031 C 103.734375 104.246094 103.574219 101.429688 103.574219 98.554688 C 103.574219 92.910156 104.1875 87.078125 105.59375 81.5625 C 106.640625 77.425781 108.136719 73.476562 110.140625 69.894531 C 113.160156 64.523438 117.285156 59.980469 122.90625 56.730469 C 128.539062 53.480469 135.726562 51.476562 145.082031 51.460938 L 145.371094 51.460938 L 145.398438 47.835938 L 145.183594 51.460938 L 145.398438 47.835938 " fill-opacity="1" fill-rule="nonzero"/><path fill="#f9b57c" d="M 99.058594 107.539062 C 99.058594 107.539062 87.542969 96.554688 84.40625 107.015625 C 81.808594 115.652344 96.472656 139.378906 103.953125 131.222656 L 99.058594 107.539062 " fill-opacity="1" fill-rule="nonzero"/><path fill="#040505" d="M 99.058594 107.539062 L 101.570312 104.914062 C 101.46875 104.824219 100.03125 103.460938 97.898438 102.011719 C 96.824219 101.285156 95.574219 100.542969 94.164062 99.949219 C 92.757812 99.355469 91.1875 98.875 89.386719 98.875 C 88.53125 98.859375 87.628906 98.976562 86.730469 99.28125 C 85.378906 99.71875 84.085938 100.589844 83.097656 101.761719 C 82.113281 102.925781 81.414062 104.347656 80.921875 105.972656 C 80.585938 107.089844 80.472656 108.207031 80.457031 109.339844 C 80.472656 112.082031 81.183594 114.925781 82.257812 117.816406 C 83.882812 122.125 86.394531 126.507812 89.371094 130.003906 C 90.867188 131.746094 92.480469 133.285156 94.265625 134.460938 C 95.167969 135.054688 96.097656 135.5625 97.113281 135.925781 C 98.128906 136.304688 99.234375 136.535156 100.382812 136.535156 C 101.511719 136.535156 102.691406 136.289062 103.765625 135.796875 C 104.855469 135.300781 105.828125 134.5625 106.640625 133.675781 C 107.425781 132.820312 107.757812 131.628906 107.511719 130.484375 L 102.617188 106.8125 C 102.472656 106.074219 102.109375 105.433594 101.570312 104.914062 L 99.058594 107.539062 L 95.5 108.28125 L 100.410156 131.949219 L 103.953125 131.222656 L 101.28125 128.773438 C 101.035156 129.046875 100.859375 129.148438 100.742188 129.207031 C 100.628906 129.25 100.554688 129.265625 100.382812 129.28125 C 100.164062 129.28125 99.757812 129.207031 99.203125 128.945312 C 98.21875 128.496094 96.835938 127.4375 95.488281 125.957031 C 93.4375 123.734375 91.40625 120.585938 89.984375 117.464844 C 89.257812 115.914062 88.675781 114.359375 88.296875 112.953125 C 87.90625 111.546875 87.71875 110.269531 87.71875 109.339844 C 87.71875 108.757812 87.804688 108.324219 87.878906 108.0625 C 88.050781 107.453125 88.253906 107.03125 88.414062 106.757812 C 88.675781 106.347656 88.820312 106.261719 88.910156 106.21875 C 88.996094 106.175781 89.097656 106.132812 89.386719 106.132812 C 89.78125 106.117188 90.503906 106.261719 91.332031 106.625 C 92.554688 107.148438 93.949219 108.046875 94.949219 108.832031 C 95.457031 109.207031 95.878906 109.558594 96.15625 109.816406 C 96.300781 109.933594 96.402344 110.019531 96.472656 110.09375 L 96.5625 110.167969 L 97.402344 109.265625 L 96.546875 110.167969 L 96.5625 110.167969 L 97.402344 109.265625 L 96.546875 110.167969 L 99.058594 107.539062 L 95.5 108.28125 L 99.058594 107.539062 " fill-opacity="1" fill-rule="nonzero"/><path fill="#f9b57c" d="M 192.742188 110.222656 C 192.742188 110.222656 204.273438 99.238281 207.410156 109.714844 C 210.007812 118.335938 195.515625 142.210938 188.023438 134.054688 L 192.742188 110.222656 " fill-opacity="1" fill-rule="nonzero"/><path fill="#040505" d="M 192.742188 110.222656 L 195.253906 112.851562 L 193.859375 111.398438 L 195.253906 112.867188 L 195.253906 112.851562 L 193.859375 111.398438 L 195.253906 112.867188 L 195.457031 112.664062 C 195.9375 112.242188 197.214844 111.167969 198.652344 110.28125 C 199.378906 109.832031 200.132812 109.441406 200.816406 109.179688 C 201.5 108.917969 202.082031 108.816406 202.429688 108.816406 C 202.617188 108.816406 202.734375 108.847656 202.804688 108.859375 C 202.921875 108.902344 202.964844 108.917969 203.167969 109.136719 C 203.359375 109.367188 203.664062 109.847656 203.9375 110.746094 C 204.011719 111.023438 204.085938 111.472656 204.085938 112.066406 C 204.097656 113.503906 203.648438 115.710938 202.777344 118.03125 C 201.484375 121.542969 199.292969 125.375 196.984375 128.117188 C 195.835938 129.484375 194.644531 130.570312 193.644531 131.253906 C 193.148438 131.585938 192.699219 131.804688 192.351562 131.933594 C 191.988281 132.066406 191.742188 132.09375 191.582031 132.09375 C 191.421875 132.09375 191.347656 132.082031 191.246094 132.023438 C 191.128906 131.980469 190.957031 131.878906 190.710938 131.601562 L 188.023438 134.054688 L 191.59375 134.75 L 196.316406 110.9375 L 192.742188 110.222656 L 195.253906 112.851562 L 192.742188 110.222656 L 189.183594 109.527344 L 184.464844 133.34375 C 184.246094 134.476562 184.582031 135.652344 185.351562 136.507812 C 186.164062 137.390625 187.136719 138.132812 188.210938 138.625 C 189.285156 139.117188 190.460938 139.351562 191.582031 139.351562 C 193.121094 139.351562 194.542969 138.945312 195.835938 138.335938 C 198.085938 137.261719 200.003906 135.605469 201.789062 133.632812 C 204.449219 130.703125 206.757812 127.03125 208.46875 123.257812 C 209.328125 121.371094 210.039062 119.453125 210.53125 117.582031 C 211.039062 115.710938 211.34375 113.867188 211.34375 112.066406 C 211.34375 110.921875 211.230469 109.789062 210.894531 108.671875 C 210.5625 107.582031 210.15625 106.597656 209.601562 105.695312 C 208.804688 104.375 207.699219 103.257812 206.40625 102.546875 C 205.101562 101.835938 203.691406 101.558594 202.429688 101.558594 C 200.628906 101.574219 199.046875 102.039062 197.652344 102.632812 C 195.53125 103.546875 193.757812 104.753906 192.453125 105.753906 C 191.144531 106.757812 190.316406 107.539062 190.246094 107.613281 C 189.707031 108.121094 189.328125 108.800781 189.183594 109.527344 L 192.742188 110.222656 " fill-opacity="1" fill-rule="nonzero"/><path fill="#ffffff" d="M 145.34375 198.925781 C 145.34375 198.925781 120.144531 187.140625 117.574219 184.398438 C 117.574219 184.398438 113.191406 182.960938 110.5625 185.835938 C 107.945312 188.722656 97.476562 193.917969 97.476562 193.917969 L 120.972656 240.359375 C 120.972656 240.359375 133.347656 217.5 145.34375 203.890625 L 145.34375 198.925781 " fill-opacity="1" fill-rule="nonzero"/><path fill="#040505" d="M 145.34375 198.925781 L 146.894531 195.644531 C 146.894531 195.644531 146.503906 195.457031 145.804688 195.136719 C 143.394531 193.992188 137.3125 191.101562 131.574219 188.214844 C 128.714844 186.765625 125.941406 185.3125 123.789062 184.109375 C 122.714844 183.511719 121.800781 182.976562 121.132812 182.539062 C 120.8125 182.335938 120.550781 182.148438 120.378906 182.019531 L 120.203125 181.886719 L 120.1875 181.875 L 119.476562 182.628906 L 120.234375 181.917969 L 120.1875 181.875 L 119.476562 182.628906 L 120.234375 181.917969 C 119.8125 181.46875 119.289062 181.132812 118.707031 180.957031 C 118.476562 180.886719 117.082031 180.421875 115.0625 180.40625 C 114.046875 180.40625 112.855469 180.539062 111.578125 180.972656 C 110.3125 181.410156 108.976562 182.191406 107.875 183.398438 C 107.773438 183.511719 107.453125 183.816406 107.019531 184.152344 C 106.261719 184.746094 105.144531 185.488281 103.925781 186.226562 C 102.109375 187.34375 100.0625 188.460938 98.507812 189.289062 C 97.722656 189.710938 97.054688 190.058594 96.589844 190.289062 C 96.359375 190.40625 96.167969 190.507812 96.039062 190.566406 L 95.863281 190.652344 C 94.980469 191.089844 94.339844 191.84375 94.019531 192.773438 C 93.714844 193.6875 93.789062 194.6875 94.238281 195.542969 L 117.734375 242 C 118.34375 243.203125 119.566406 243.972656 120.914062 243.988281 C 122.28125 244 123.515625 243.277344 124.167969 242.085938 C 124.167969 242.085938 124.210938 242.011719 124.300781 241.839844 C 124.980469 240.605469 128.191406 234.800781 132.605469 227.746094 C 137.035156 220.707031 142.667969 212.40625 148.070312 206.296875 C 148.667969 205.628906 148.972656 204.773438 148.972656 203.890625 L 148.972656 198.925781 C 148.972656 197.519531 148.171875 196.242188 146.894531 195.644531 L 145.34375 198.925781 L 141.710938 198.925781 L 141.710938 203.890625 L 145.34375 203.890625 L 142.625 201.496094 C 136.382812 208.589844 130.222656 217.804688 125.578125 225.324219 C 120.929688 232.828125 117.808594 238.589844 117.777344 238.632812 L 120.972656 240.359375 L 124.210938 238.71875 L 100.714844 192.277344 L 97.476562 193.917969 L 99.074219 197.15625 C 99.117188 197.140625 101.773438 195.835938 104.808594 194.121094 C 106.335938 193.265625 107.945312 192.308594 109.414062 191.351562 C 110.140625 190.855469 110.835938 190.378906 111.476562 189.882812 C 112.113281 189.375 112.695312 188.882812 113.246094 188.289062 C 113.464844 188.054688 113.652344 187.9375 113.960938 187.824219 C 114.25 187.722656 114.65625 187.664062 115.0625 187.664062 C 115.46875 187.664062 115.875 187.722656 116.152344 187.78125 C 116.28125 187.808594 116.398438 187.835938 116.441406 187.851562 L 116.484375 187.851562 L 116.9375 186.359375 L 116.457031 187.851562 L 116.484375 187.851562 L 116.9375 186.359375 L 116.457031 187.851562 L 117.574219 184.398438 L 114.933594 186.878906 C 115.367188 187.34375 115.746094 187.632812 116.179688 187.953125 C 116.980469 188.519531 117.921875 189.113281 119.054688 189.769531 C 122.992188 192.046875 129.121094 195.125 134.332031 197.675781 C 139.546875 200.21875 143.800781 202.207031 143.816406 202.207031 L 145.34375 198.925781 L 141.710938 198.925781 L 145.34375 198.925781 " fill-opacity="1" fill-rule="nonzero"/><path fill="#ffffff" d="M 145.355469 198.925781 C 145.355469 198.925781 170.566406 187.140625 173.121094 184.398438 C 173.121094 184.398438 177.523438 182.960938 180.152344 185.835938 C 182.765625 188.722656 188.023438 192.800781 188.023438 192.800781 L 167.386719 238.472656 C 167.386719 238.472656 157.367188 217.5 145.355469 203.890625 L 145.355469 198.925781 " fill-opacity="1" fill-rule="nonzero"/><path fill="#040505" d="M 145.355469 198.925781 L 146.894531 202.207031 C 146.910156 202.207031 153.226562 199.246094 159.894531 195.9375 C 163.234375 194.28125 166.644531 192.539062 169.449219 191.015625 C 170.84375 190.230469 172.09375 189.535156 173.121094 188.882812 C 173.632812 188.5625 174.109375 188.257812 174.53125 187.953125 C 174.953125 187.632812 175.332031 187.34375 175.78125 186.878906 L 173.121094 184.398438 L 174.253906 187.851562 L 173.761719 186.371094 L 174.210938 187.851562 L 174.253906 187.851562 L 173.761719 186.371094 L 174.210938 187.851562 C 174.226562 187.851562 174.921875 187.664062 175.648438 187.664062 C 176.054688 187.664062 176.464844 187.722656 176.753906 187.824219 C 177.058594 187.9375 177.246094 188.054688 177.464844 188.289062 L 177.449219 188.289062 C 178.988281 189.972656 181.023438 191.742188 182.738281 193.179688 C 184.4375 194.613281 185.773438 195.644531 185.800781 195.675781 L 188.023438 192.800781 L 184.726562 191.320312 L 164.074219 236.976562 L 167.386719 238.472656 L 170.652344 236.90625 C 170.625 236.847656 168.082031 231.535156 164.015625 224.480469 C 159.9375 217.414062 154.34375 208.621094 148.070312 201.496094 L 145.355469 203.890625 L 148.988281 203.890625 L 148.988281 198.925781 L 145.355469 198.925781 L 146.894531 202.207031 L 145.355469 198.925781 L 141.726562 198.925781 L 141.726562 203.890625 C 141.726562 204.773438 142.046875 205.628906 142.625 206.296875 C 148.363281 212.785156 153.792969 221.273438 157.730469 228.097656 C 159.691406 231.519531 161.289062 234.511719 162.40625 236.644531 C 162.957031 237.71875 163.378906 238.574219 163.667969 239.15625 L 164.003906 239.820312 L 164.074219 239.980469 L 164.105469 240.039062 C 164.714844 241.316406 166.007812 242.113281 167.414062 242.101562 C 168.824219 242.085938 170.101562 241.257812 170.683594 239.96875 L 191.332031 194.296875 C 192.03125 192.773438 191.582031 190.972656 190.257812 189.941406 L 190.199219 189.898438 C 189.941406 189.679688 188.632812 188.664062 187.109375 187.375 C 185.597656 186.097656 183.839844 184.515625 182.839844 183.398438 L 182.824219 183.398438 C 181.734375 182.191406 180.382812 181.410156 179.121094 180.972656 C 177.855469 180.539062 176.667969 180.40625 175.648438 180.40625 C 173.617188 180.421875 172.222656 180.886719 172.003906 180.957031 C 171.410156 181.132812 170.886719 181.464844 170.480469 181.917969 L 171.175781 182.570312 L 170.523438 181.875 L 170.480469 181.917969 L 171.175781 182.570312 L 170.523438 181.875 C 170.523438 181.875 170.347656 182.019531 170.074219 182.207031 C 169.566406 182.570312 168.707031 183.09375 167.664062 183.6875 C 163.988281 185.804688 157.976562 188.824219 152.9375 191.277344 C 150.425781 192.496094 148.128906 193.597656 146.488281 194.382812 C 145.660156 194.773438 144.992188 195.09375 144.527344 195.3125 C 144.0625 195.515625 143.816406 195.644531 143.816406 195.644531 C 142.539062 196.242188 141.726562 197.519531 141.726562 198.925781 L 145.355469 198.925781 " fill-opacity="1" fill-rule="nonzero"/><path fill="#335c92" d="M 88.472656 196.09375 L 79.222656 228.242188 L 94.933594 234.523438 L 79.222656 246.730469 L 132.648438 311.71875 L 144.703125 311.71875 L 145.023438 287.902344 L 97.476562 193.917969 L 88.472656 196.09375 " fill-opacity="1" fill-rule="nonzero"/><path fill="#040505" d="M 88.472656 196.09375 L 84.988281 195.078125 L 75.738281 227.238281 C 75.226562 229.023438 76.144531 230.910156 77.871094 231.609375 L 87.71875 235.527344 L 77 243.871094 C 76.214844 244.464844 75.722656 245.351562 75.621094 246.324219 C 75.503906 247.296875 75.792969 248.269531 76.417969 249.039062 L 129.847656 314.023438 C 130.527344 314.851562 131.558594 315.34375 132.648438 315.34375 L 144.703125 315.34375 C 146.691406 315.34375 148.304688 313.75 148.332031 311.777344 L 148.652344 287.960938 C 148.667969 287.367188 148.535156 286.800781 148.273438 286.277344 L 100.714844 192.277344 C 99.945312 190.769531 98.246094 189.984375 96.621094 190.390625 L 87.617188 192.570312 C 86.351562 192.875 85.351562 193.832031 84.988281 195.078125 L 88.472656 196.09375 L 89.328125 199.609375 L 95.53125 198.113281 L 141.378906 288.742188 L 141.117188 308.089844 L 134.363281 308.089844 L 84.390625 247.296875 L 97.15625 237.382812 C 98.1875 236.585938 98.710938 235.292969 98.535156 234.003906 C 98.347656 232.726562 97.492188 231.621094 96.285156 231.144531 L 83.621094 226.09375 L 91.972656 197.097656 L 88.472656 196.09375 L 89.328125 199.609375 L 88.472656 196.09375 " fill-opacity="1" fill-rule="nonzero"/><path fill="#335c92" d="M 197.027344 194.976562 L 211.550781 228.242188 L 195.835938 234.523438 L 211.550781 246.730469 L 156.945312 311.71875 L 144.703125 311.71875 L 145.023438 287.902344 L 188.023438 192.800781 L 197.027344 194.976562 " fill-opacity="1" fill-rule="nonzero"/><path fill="#040505" d="M 197.027344 194.976562 L 193.699219 196.429688 L 206.726562 226.253906 L 194.484375 231.144531 C 193.28125 231.621094 192.421875 232.726562 192.234375 234.003906 C 192.058594 235.292969 192.582031 236.585938 193.597656 237.382812 L 206.335938 247.28125 L 155.261719 308.089844 L 148.378906 308.089844 L 148.652344 288.714844 L 190.097656 197.039062 L 196.167969 198.503906 L 197.027344 194.976562 L 193.699219 196.429688 L 197.027344 194.976562 L 197.882812 191.453125 L 188.878906 189.273438 C 187.195312 188.867188 185.4375 189.722656 184.726562 191.320312 L 141.710938 286.40625 C 141.507812 286.871094 141.40625 287.351562 141.390625 287.859375 L 141.074219 311.675781 C 141.058594 312.632812 141.433594 313.574219 142.117188 314.257812 C 142.800781 314.953125 143.730469 315.34375 144.703125 315.34375 L 156.945312 315.34375 C 158.019531 315.34375 159.035156 314.882812 159.734375 314.054688 L 214.324219 249.066406 C 214.960938 248.3125 215.265625 247.324219 215.152344 246.351562 C 215.046875 245.367188 214.554688 244.464844 213.785156 243.871094 L 203.066406 235.539062 L 212.898438 231.609375 C 213.8125 231.246094 214.527344 230.519531 214.902344 229.621094 C 215.28125 228.707031 215.265625 227.6875 214.875 226.789062 L 200.351562 193.527344 C 199.902344 192.480469 198.988281 191.726562 197.882812 191.453125 L 197.027344 194.976562 " fill-opacity="1" fill-rule="nonzero"/><path fill="#462516" d="M 97.476562 101.878906 L 101.207031 113.75 C 101.207031 113.75 105.769531 102.273438 108.558594 97.378906 C 111.34375 92.503906 112.738281 79.9375 112.738281 76.453125 C 112.738281 72.96875 115.542969 68.078125 117.980469 67.035156 C 120.421875 65.988281 142.769531 74 150.105469 72.257812 C 157.4375 70.519531 176.636719 69.125 177.683594 69.472656 C 178.742188 69.820312 179.789062 74.699219 180.484375 77.847656 C 181.183594 80.980469 177.683594 93.199219 180.484375 97.378906 C 183.273438 101.574219 189.183594 116.507812 189.183594 116.507812 C 189.183594 116.507812 198.683594 74.699219 192.960938 59.359375 C 187.222656 44.003906 161.984375 32.132812 147.476562 30.925781 C 132.578125 29.679688 104.882812 41.550781 97.476562 60.75 C 90.054688 79.9375 97.476562 101.878906 97.476562 101.878906 " fill-opacity="1" fill-rule="nonzero"/><g clip-path="url(#4ef4f23e7e)"><path fill="#040505" d="M 97.476562 101.878906 L 94.003906 102.96875 L 97.753906 114.839844 C 98.203125 116.289062 99.554688 117.320312 101.078125 117.378906 C 102.617188 117.421875 104.027344 116.507812 104.59375 115.085938 C 104.59375 115.085938 104.652344 114.910156 104.78125 114.59375 C 105.230469 113.488281 106.394531 110.617188 107.742188 107.511719 C 108.410156 105.957031 109.136719 104.363281 109.820312 102.894531 C 110.515625 101.445312 111.171875 100.125 111.707031 99.195312 C 112.667969 97.511719 113.320312 95.582031 113.886719 93.492188 C 114.742188 90.371094 115.339844 86.886719 115.761719 83.796875 C 115.964844 82.242188 116.121094 80.808594 116.226562 79.558594 C 116.328125 78.3125 116.371094 77.28125 116.371094 76.453125 C 116.371094 76.0625 116.472656 75.421875 116.6875 74.726562 C 117.007812 73.683594 117.589844 72.507812 118.214844 71.648438 C 118.519531 71.214844 118.824219 70.867188 119.070312 70.632812 L 119.363281 70.402344 L 119.417969 70.359375 L 119.433594 70.359375 L 119.289062 70.066406 L 119.40625 70.371094 L 119.433594 70.359375 L 119.289062 70.066406 L 119.40625 70.371094 L 118.417969 68.035156 L 118.765625 70.5625 C 118.867188 70.53125 119.070312 70.503906 119.40625 70.371094 L 118.417969 68.035156 L 118.765625 70.5625 L 118.578125 69.242188 L 118.664062 70.5625 L 118.765625 70.5625 L 118.578125 69.242188 L 118.664062 70.5625 L 118.636719 70.140625 L 118.648438 70.5625 L 118.664062 70.5625 L 118.636719 70.140625 L 118.648438 70.5625 C 118.75 70.5625 119.316406 70.605469 120.058594 70.75 C 121.378906 70.984375 123.3125 71.433594 125.503906 71.984375 C 128.816406 72.796875 132.765625 73.828125 136.644531 74.652344 C 140.519531 75.480469 144.28125 76.132812 147.535156 76.132812 C 148.710938 76.132812 149.828125 76.046875 150.949219 75.785156 C 152.371094 75.453125 154.550781 75.089844 156.960938 74.753906 C 160.621094 74.261719 164.890625 73.828125 168.605469 73.523438 C 170.464844 73.378906 172.179688 73.246094 173.601562 73.171875 C 175.023438 73.085938 176.171875 73.042969 176.796875 73.042969 C 176.984375 73.042969 177.132812 73.058594 177.160156 73.058594 L 177.160156 73.015625 L 177.160156 73.058594 L 177.160156 73.015625 L 177.160156 73.058594 L 177.335938 71.140625 L 177.03125 73.042969 L 177.160156 73.058594 L 177.335938 71.140625 L 177.03125 73.042969 L 177.523438 69.964844 L 176.535156 72.914062 C 176.8125 73 176.941406 73.015625 177.03125 73.042969 L 177.523438 69.964844 L 176.535156 72.914062 L 177.492188 70.039062 L 175.535156 72.347656 C 175.722656 72.519531 176.042969 72.753906 176.535156 72.914062 L 177.492188 70.039062 L 175.535156 72.347656 L 176.722656 70.953125 L 175.113281 71.898438 C 175.128906 71.898438 175.171875 72.027344 175.535156 72.347656 L 176.722656 70.953125 L 175.113281 71.898438 C 175.128906 71.898438 175.285156 72.246094 175.445312 72.710938 C 175.691406 73.421875 175.96875 74.4375 176.230469 75.496094 C 176.476562 76.554688 176.722656 77.65625 176.941406 78.628906 L 176.941406 78.644531 L 177.449219 78.527344 L 176.925781 78.601562 L 176.941406 78.644531 L 177.449219 78.527344 L 176.925781 78.601562 C 176.925781 78.617188 176.957031 78.746094 176.941406 78.980469 C 176.957031 79.441406 176.882812 80.242188 176.78125 81.183594 C 176.621094 82.605469 176.375 84.378906 176.15625 86.25 C 175.941406 88.121094 175.75 90.09375 175.75 92.039062 C 175.75 93.289062 175.824219 94.523438 176.054688 95.742188 C 176.289062 96.960938 176.667969 98.207031 177.464844 99.398438 C 177.699219 99.761719 178.058594 100.371094 178.453125 101.109375 C 179.847656 103.722656 181.71875 107.976562 183.203125 111.488281 C 183.941406 113.257812 184.59375 114.839844 185.058594 115.984375 C 185.292969 116.566406 185.480469 117.03125 185.613281 117.351562 C 185.742188 117.667969 185.800781 117.828125 185.800781 117.828125 C 186.394531 119.308594 187.878906 120.238281 189.460938 120.121094 C 191.042969 119.992188 192.363281 118.859375 192.726562 117.304688 C 192.726562 117.25 194.152344 111.023438 195.574219 102.460938 C 196.984375 93.882812 198.421875 82.984375 198.421875 73.433594 C 198.421875 70.546875 198.289062 67.773438 197.984375 65.207031 C 197.652344 62.625 197.15625 60.242188 196.359375 58.09375 C 194.660156 53.566406 191.667969 49.5625 187.992188 46.007812 C 182.476562 40.664062 175.386719 36.3125 168.214844 33.089844 C 161.027344 29.898438 153.792969 27.820312 147.765625 27.3125 C 146.953125 27.242188 146.113281 27.210938 145.238281 27.210938 C 140.96875 27.210938 136.222656 28.011719 131.296875 29.460938 C 123.921875 31.652344 116.195312 35.339844 109.488281 40.347656 C 102.792969 45.367188 97.070312 51.738281 94.078125 59.445312 C 91.40625 66.382812 90.550781 73.523438 90.550781 79.9375 C 90.550781 92.78125 93.960938 102.824219 94.035156 103.039062 L 97.476562 101.878906 L 94.003906 102.96875 L 97.476562 101.878906 L 100.902344 100.71875 L 99.859375 101.082031 L 100.902344 100.71875 L 99.859375 101.082031 L 100.902344 100.71875 C 100.875 100.644531 97.78125 91.300781 97.808594 79.9375 C 97.796875 74.175781 98.59375 67.90625 100.859375 62.058594 C 102.398438 58.050781 105.011719 54.292969 108.355469 50.910156 C 113.347656 45.847656 119.984375 41.667969 126.695312 38.824219 C 133.390625 35.964844 140.199219 34.453125 145.238281 34.46875 C 145.921875 34.46875 146.5625 34.496094 147.171875 34.542969 C 150.394531 34.800781 154.460938 35.703125 158.730469 37.152344 C 165.136719 39.332031 172.046875 42.726562 177.726562 46.863281 C 180.574219 48.9375 183.101562 51.1875 185.132812 53.507812 C 187.164062 55.84375 188.675781 58.253906 189.5625 60.636719 C 190.085938 62.027344 190.507812 63.898438 190.765625 66.089844 C 191.042969 68.269531 191.160156 70.765625 191.160156 73.433594 C 191.175781 82.273438 189.792969 92.910156 188.402344 101.269531 C 187.71875 105.449219 187.019531 109.0625 186.496094 111.632812 C 186.238281 112.921875 186.035156 113.941406 185.875 114.636719 C 185.800781 114.984375 185.742188 115.261719 185.699219 115.433594 C 185.65625 115.609375 185.640625 115.695312 185.640625 115.695312 L 189.183594 116.507812 L 192.554688 115.160156 C 192.554688 115.144531 191.058594 111.398438 189.214844 107.089844 C 188.285156 104.925781 187.28125 102.632812 186.292969 100.589844 C 185.816406 99.558594 185.335938 98.585938 184.871094 97.714844 C 184.40625 96.828125 183.957031 96.058594 183.507812 95.378906 C 183.464844 95.335938 183.304688 94.984375 183.1875 94.390625 C 183.070312 93.796875 183.011719 92.96875 183.011719 92.039062 C 183.011719 90.082031 183.289062 87.644531 183.578125 85.335938 C 183.722656 84.1875 183.882812 83.042969 184 81.984375 C 184.117188 80.921875 184.203125 79.9375 184.203125 78.980469 C 184.203125 78.371094 184.1875 77.773438 184.027344 77.0625 C 183.679688 75.496094 183.230469 73.433594 182.707031 71.605469 C 182.433594 70.675781 182.15625 69.808594 181.765625 68.964844 C 181.574219 68.542969 181.34375 68.125 180.980469 67.628906 C 180.789062 67.382812 180.574219 67.109375 180.238281 66.832031 C 179.917969 66.554688 179.46875 66.25 178.84375 66.035156 C 178.421875 65.902344 178.21875 65.886719 178.046875 65.859375 C 177.785156 65.816406 177.597656 65.816406 177.394531 65.800781 C 177.203125 65.785156 177.015625 65.785156 176.796875 65.785156 C 175.621094 65.785156 173.835938 65.875 171.613281 66.019531 C 168.273438 66.25 164.03125 66.613281 159.964844 67.078125 C 155.871094 67.542969 152.023438 68.078125 149.261719 68.734375 C 148.945312 68.820312 148.320312 68.890625 147.535156 68.878906 C 145.835938 68.890625 143.394531 68.585938 140.722656 68.078125 C 136.714844 67.324219 132.171875 66.164062 128.234375 65.175781 C 126.257812 64.683594 124.429688 64.234375 122.847656 63.898438 C 122.0625 63.742188 121.320312 63.59375 120.640625 63.492188 C 119.957031 63.390625 119.332031 63.320312 118.648438 63.304688 C 118.386719 63.304688 118.097656 63.320312 117.765625 63.363281 C 117.429688 63.421875 117.050781 63.492188 116.542969 63.695312 C 115.238281 64.277344 114.308594 65.089844 113.449219 66.003906 C 112.214844 67.367188 111.199219 68.992188 110.429688 70.765625 C 109.675781 72.535156 109.125 74.421875 109.109375 76.453125 C 109.125 77.105469 109.035156 78.484375 108.875 80.140625 C 108.628906 82.652344 108.179688 85.84375 107.554688 88.789062 C 107.25 90.253906 106.902344 91.648438 106.523438 92.839844 C 106.144531 94.027344 105.738281 95.015625 105.40625 95.582031 C 104.621094 96.960938 103.777344 98.65625 102.9375 100.472656 C 100.410156 105.898438 97.855469 112.371094 97.839844 112.402344 L 101.207031 113.75 L 104.679688 112.664062 L 100.933594 100.792969 L 100.902344 100.71875 L 97.476562 101.878906 " fill-opacity="1" fill-rule="nonzero"/></g><path fill="#fbcb41" d="M 289.78125 211.609375 C 287.777344 211.609375 286.148438 210 286.148438 207.980469 C 286.148438 206.746094 286.773438 205.644531 287.734375 204.992188 L 287.734375 189.769531 L 251.078125 189.769531 L 251.078125 204.992188 C 252.035156 205.644531 252.660156 206.746094 252.660156 207.980469 C 252.660156 210 251.035156 211.609375 249.03125 211.609375 L 242.816406 211.609375 C 239.664062 211.609375 237.109375 209.054688 237.109375 205.921875 L 237.109375 181.523438 C 237.109375 178.390625 239.664062 175.820312 242.816406 175.820312 L 295.996094 175.820312 C 299.148438 175.820312 301.703125 178.390625 301.703125 181.523438 L 301.703125 205.921875 C 301.703125 209.054688 299.148438 211.609375 295.996094 211.609375 L 289.78125 211.609375 " fill-opacity="1" fill-rule="nonzero"/><path fill="#040505" d="M 295.996094 172.191406 L 242.816406 172.191406 C 237.660156 172.191406 233.476562 176.386719 233.476562 181.523438 L 233.476562 205.921875 C 233.476562 211.058594 237.660156 215.238281 242.816406 215.238281 L 249.03125 215.238281 C 253.039062 215.238281 256.292969 212 256.292969 207.980469 C 256.292969 206.269531 255.695312 204.703125 254.710938 203.453125 L 254.710938 193.394531 L 284.101562 193.394531 L 284.101562 203.453125 C 283.113281 204.703125 282.519531 206.269531 282.519531 207.980469 C 282.519531 212 285.773438 215.238281 289.78125 215.238281 L 295.996094 215.238281 C 301.152344 215.238281 305.332031 211.058594 305.332031 205.921875 L 305.332031 181.523438 C 305.332031 176.386719 301.152344 172.191406 295.996094 172.191406 Z M 295.996094 179.449219 C 297.144531 179.449219 298.074219 180.378906 298.074219 181.523438 L 298.074219 205.921875 C 298.074219 207.066406 297.144531 207.980469 295.996094 207.980469 L 289.78125 207.980469 C 290.652344 207.980469 291.363281 207.285156 291.363281 206.398438 L 291.363281 187.722656 C 291.363281 186.835938 290.652344 186.140625 289.78125 186.140625 L 249.03125 186.140625 C 248.144531 186.140625 247.449219 186.835938 247.449219 187.722656 L 247.449219 206.398438 C 247.449219 207.285156 248.144531 207.980469 249.03125 207.980469 L 242.816406 207.980469 C 241.667969 207.980469 240.738281 207.066406 240.738281 205.921875 L 240.738281 181.523438 C 240.738281 180.378906 241.667969 179.449219 242.816406 179.449219 L 295.996094 179.449219 " fill-opacity="1" fill-rule="nonzero"/><path fill="#fbcb41" d="M 201.980469 205.527344 C 199.148438 205.527344 196.953125 203.019531 196.953125 199.824219 L 196.953125 195.226562 C 196.953125 192.03125 199.148438 189.519531 201.980469 189.519531 L 220.640625 189.519531 C 223.457031 189.519531 225.679688 192.03125 225.679688 195.226562 L 225.679688 199.824219 C 225.679688 203.019531 223.457031 205.527344 220.640625 205.527344 L 201.980469 205.527344 " fill-opacity="1" fill-rule="nonzero"/><path fill="#040505" d="M 220.640625 185.894531 L 201.980469 185.894531 C 197.128906 185.894531 193.324219 190 193.324219 195.226562 L 193.324219 199.824219 C 193.324219 205.050781 197.128906 209.15625 201.980469 209.15625 L 220.640625 209.15625 C 225.503906 209.15625 229.308594 205.050781 229.308594 199.824219 L 229.308594 195.226562 C 229.308594 190 225.503906 185.894531 220.640625 185.894531 Z M 220.640625 193.148438 C 221.410156 193.148438 222.046875 194.078125 222.046875 195.226562 L 222.046875 199.824219 C 222.046875 200.972656 221.410156 201.902344 220.640625 201.902344 L 201.980469 201.902344 C 201.210938 201.902344 200.585938 200.972656 200.585938 199.824219 L 200.585938 195.226562 C 200.585938 194.078125 201.210938 193.148438 201.980469 193.148438 L 220.640625 193.148438 " fill-opacity="1" fill-rule="nonzero"/><path fill="#fbcb41" d="M 318.15625 205.527344 C 315.324219 205.527344 313.132812 203.019531 313.132812 199.824219 L 313.132812 195.226562 C 313.132812 192.03125 315.324219 189.519531 318.15625 189.519531 L 336.816406 189.519531 C 339.636719 189.519531 341.855469 192.03125 341.855469 195.226562 L 341.855469 199.824219 C 341.855469 203.019531 339.636719 205.527344 336.816406 205.527344 L 318.15625 205.527344 " fill-opacity="1" fill-rule="nonzero"/><path fill="#040505" d="M 336.816406 185.894531 L 318.15625 185.894531 C 313.304688 185.894531 309.5 190 309.5 195.226562 L 309.5 199.824219 C 309.5 205.050781 313.304688 209.15625 318.15625 209.15625 L 336.816406 209.15625 C 341.683594 209.15625 345.488281 205.050781 345.488281 199.824219 L 345.488281 195.226562 C 345.488281 190 341.683594 185.894531 336.816406 185.894531 Z M 336.816406 193.148438 C 337.585938 193.148438 338.226562 194.078125 338.226562 195.226562 L 338.226562 199.824219 C 338.226562 200.972656 337.585938 201.902344 336.816406 201.902344 L 318.15625 201.902344 C 317.386719 201.902344 316.761719 200.972656 316.761719 199.824219 L 316.761719 195.226562 C 316.761719 194.078125 317.386719 193.148438 318.15625 193.148438 L 336.816406 193.148438 " fill-opacity="1" fill-rule="nonzero"/><path fill="#613424" d="M 347.695312 315.910156 C 347.695312 319.714844 344.601562 322.804688 340.78125 322.804688 L 198.027344 322.804688 C 194.210938 322.804688 191.117188 319.714844 191.117188 315.910156 L 191.117188 210.984375 C 191.117188 207.167969 194.210938 204.078125 198.027344 204.078125 L 340.78125 204.078125 C 344.601562 204.078125 347.695312 207.167969 347.695312 210.984375 L 347.695312 315.910156 " fill-opacity="1" fill-rule="nonzero"/><g clip-path="url(#fcbe05ef0a)"><path fill="#040505" d="M 347.695312 315.910156 L 344.066406 315.910156 C 344.050781 316.824219 343.703125 317.625 343.105469 318.21875 C 342.496094 318.828125 341.699219 319.175781 340.78125 319.175781 L 198.027344 319.175781 C 197.113281 319.175781 196.316406 318.828125 195.703125 318.21875 C 195.109375 317.609375 194.746094 316.824219 194.746094 315.910156 L 194.746094 210.984375 C 194.746094 210.070312 195.109375 209.273438 195.703125 208.664062 C 196.316406 208.070312 197.113281 207.707031 198.027344 207.707031 L 340.78125 207.707031 C 341.699219 207.707031 342.496094 208.070312 343.105469 208.664062 C 343.703125 209.273438 344.050781 210.070312 344.066406 210.984375 L 344.066406 315.910156 L 351.324219 315.910156 L 351.324219 210.984375 C 351.324219 208.082031 350.136719 205.425781 348.234375 203.539062 C 346.34375 201.640625 343.671875 200.449219 340.78125 200.449219 L 198.027344 200.449219 C 195.125 200.449219 192.464844 201.640625 190.578125 203.527344 C 188.675781 205.425781 187.484375 208.082031 187.484375 210.984375 L 187.484375 315.910156 C 187.484375 318.800781 188.675781 321.457031 190.578125 323.355469 C 192.464844 325.257812 195.125 326.449219 198.027344 326.433594 L 340.78125 326.433594 C 343.671875 326.449219 346.34375 325.257812 348.234375 323.355469 C 350.136719 321.457031 351.324219 318.800781 351.324219 315.910156 L 347.695312 315.910156 " fill-opacity="1" fill-rule="nonzero"/></g><path fill="#794030" d="M 352.152344 252.855469 C 352.152344 254.058594 351.179688 255.046875 349.976562 255.046875 L 188.835938 255.046875 C 187.628906 255.046875 186.644531 254.058594 186.644531 252.855469 L 186.644531 203.046875 C 186.644531 201.84375 187.628906 200.855469 188.835938 200.855469 L 349.976562 200.855469 C 351.179688 200.855469 352.152344 201.84375 352.152344 203.046875 L 352.152344 252.855469 " fill-opacity="1" fill-rule="nonzero"/><path fill="#040505" d="M 352.152344 252.855469 L 348.523438 252.855469 L 349.976562 252.855469 L 348.957031 251.839844 C 348.695312 252.085938 348.523438 252.476562 348.523438 252.855469 L 349.976562 252.855469 L 348.957031 251.839844 L 349.976562 252.855469 L 349.976562 251.417969 C 349.582031 251.417969 349.207031 251.589844 348.957031 251.839844 L 349.976562 252.855469 L 349.976562 251.417969 L 188.835938 251.417969 L 188.835938 252.855469 L 189.851562 251.839844 C 189.605469 251.589844 189.226562 251.417969 188.835938 251.417969 L 188.835938 252.855469 L 189.851562 251.839844 L 188.835938 252.855469 L 190.273438 252.855469 C 190.273438 252.476562 190.113281 252.085938 189.851562 251.839844 L 188.835938 252.855469 L 190.273438 252.855469 L 190.273438 203.046875 L 188.835938 203.046875 L 189.851562 204.0625 C 190.113281 203.816406 190.273438 203.4375 190.273438 203.046875 L 188.835938 203.046875 L 189.851562 204.0625 L 188.835938 203.046875 L 188.835938 204.484375 C 189.226562 204.484375 189.605469 204.324219 189.851562 204.0625 L 188.835938 203.046875 L 188.835938 204.484375 L 349.976562 204.484375 L 349.976562 203.046875 L 348.957031 204.0625 C 349.207031 204.324219 349.582031 204.484375 349.976562 204.484375 L 349.976562 203.046875 L 348.957031 204.0625 L 349.976562 203.046875 L 348.523438 203.046875 C 348.523438 203.4375 348.695312 203.816406 348.957031 204.0625 L 349.976562 203.046875 L 348.523438 203.046875 L 348.523438 252.855469 L 355.785156 252.855469 L 355.785156 203.046875 C 355.796875 201.449219 355.128906 199.96875 354.085938 198.941406 C 353.039062 197.878906 351.574219 197.226562 349.976562 197.226562 L 188.835938 197.226562 C 187.238281 197.226562 185.757812 197.878906 184.710938 198.941406 C 183.667969 199.96875 183.011719 201.449219 183.011719 203.046875 L 183.011719 252.855469 C 183.011719 254.449219 183.667969 255.929688 184.726562 256.976562 C 185.757812 258.019531 187.238281 258.675781 188.835938 258.675781 L 349.976562 258.675781 C 351.558594 258.675781 353.039062 258.019531 354.085938 256.976562 C 355.128906 255.929688 355.796875 254.449219 355.785156 252.855469 L 352.152344 252.855469 " fill-opacity="1" fill-rule="nonzero"/><path fill="#99523f" d="M 352.152344 210.519531 L 352.152344 203.046875 C 352.152344 201.84375 351.179688 200.855469 349.976562 200.855469 L 188.835938 200.855469 C 187.628906 200.855469 186.644531 201.84375 186.644531 203.046875 L 186.644531 210.519531 L 352.152344 210.519531 " fill-opacity="1" fill-rule="nonzero"/><path fill="#040505" d="M 352.152344 210.519531 L 355.785156 210.519531 L 355.785156 203.046875 C 355.796875 201.449219 355.128906 199.96875 354.085938 198.941406 C 353.039062 197.878906 351.574219 197.226562 349.976562 197.226562 L 188.835938 197.226562 C 187.238281 197.226562 185.757812 197.878906 184.710938 198.941406 C 183.667969 199.96875 183.011719 201.449219 183.011719 203.046875 L 183.011719 210.519531 C 183.011719 211.480469 183.40625 212.40625 184.074219 213.089844 C 184.753906 213.757812 185.683594 214.148438 186.644531 214.148438 L 352.152344 214.148438 C 353.113281 214.148438 354.054688 213.757812 354.722656 213.089844 C 355.40625 212.40625 355.785156 211.480469 355.785156 210.519531 L 352.152344 210.519531 L 352.152344 206.894531 L 190.273438 206.894531 L 190.273438 203.046875 L 188.835938 203.046875 L 189.851562 204.0625 C 190.113281 203.816406 190.273438 203.4375 190.273438 203.046875 L 188.835938 203.046875 L 189.851562 204.0625 L 188.835938 203.046875 L 188.835938 204.484375 C 189.226562 204.484375 189.605469 204.324219 189.851562 204.0625 L 188.835938 203.046875 L 188.835938 204.484375 L 349.976562 204.484375 L 349.976562 203.046875 L 348.957031 204.0625 C 349.207031 204.324219 349.582031 204.484375 349.976562 204.484375 L 349.976562 203.046875 L 348.957031 204.0625 L 349.976562 203.046875 L 348.523438 203.046875 C 348.523438 203.4375 348.695312 203.816406 348.957031 204.0625 L 349.976562 203.046875 L 348.523438 203.046875 L 348.523438 210.519531 L 352.152344 210.519531 L 352.152344 206.894531 L 352.152344 210.519531 " fill-opacity="1" fill-rule="nonzero"/><path fill="#fbcb41" d="M 261.695312 273.289062 C 258.542969 273.289062 255.988281 270.71875 255.988281 267.585938 L 255.988281 246.179688 C 255.988281 243.042969 258.542969 240.488281 261.695312 240.488281 L 277.117188 240.488281 C 280.269531 240.488281 282.824219 243.042969 282.824219 246.179688 L 282.824219 267.585938 C 282.824219 270.71875 280.269531 273.289062 277.117188 273.289062 L 261.695312 273.289062 " fill-opacity="1" fill-rule="nonzero"/><path fill="#040505" d="M 277.117188 236.863281 L 261.695312 236.863281 C 256.539062 236.863281 252.355469 241.042969 252.355469 246.179688 L 252.355469 267.585938 C 252.355469 272.722656 256.539062 276.917969 261.695312 276.917969 L 277.117188 276.917969 C 282.273438 276.917969 286.453125 272.722656 286.453125 267.585938 L 286.453125 246.179688 C 286.453125 241.042969 282.273438 236.863281 277.117188 236.863281 Z M 277.117188 244.117188 C 278.265625 244.117188 279.195312 245.046875 279.195312 246.179688 L 279.195312 267.585938 C 279.195312 268.730469 278.265625 269.660156 277.117188 269.660156 L 261.695312 269.660156 C 260.546875 269.660156 259.617188 268.730469 259.617188 267.585938 L 259.617188 246.179688 C 259.617188 245.046875 260.546875 244.117188 261.695312 244.117188 L 277.117188 244.117188 " fill-opacity="1" fill-rule="nonzero"/></svg>