<svg xmlns="http://www.w3.org/2000/svg" xmlns:xlink="http://www.w3.org/1999/xlink" width="500" zoomAndPan="magnify" viewBox="0 0 375 374.999991" height="500" preserveAspectRatio="xMidYMid meet" version="1.0"><defs><g/><clipPath id="93e55a9e29"><path d="M 121 84.460938 L 218 84.460938 L 218 118 L 121 118 Z M 121 84.460938 " clip-rule="nonzero"/></clipPath><clipPath id="aaa94f5dd8"><path d="M 30.1875 178 L 171 178 L 171 285.460938 L 30.1875 285.460938 Z M 30.1875 178 " clip-rule="nonzero"/></clipPath></defs><rect x="-37.5" width="450" fill="#ffffff" y="-37.499999" height="449.999989" fill-opacity="1"/><rect x="-37.5" width="450" fill="#8e83a6" y="-37.499999" height="449.999989" fill-opacity="1"/><path fill="#a17ac4" d="M 205.351562 115.691406 C 204.515625 115.691406 203.839844 115.015625 203.839844 114.183594 L 203.839844 98.589844 C 203.839844 98.351562 203.648438 98.160156 203.414062 98.160156 L 135.859375 98.160156 C 135.625 98.160156 135.4375 98.351562 135.4375 98.589844 L 135.4375 114.183594 C 135.4375 115.015625 134.757812 115.691406 133.925781 115.691406 L 124.742188 115.691406 C 123.910156 115.691406 123.230469 115.015625 123.230469 114.183594 L 123.230469 98.589844 C 123.230469 91.636719 128.898438 85.984375 135.859375 85.984375 L 203.414062 85.984375 C 210.378906 85.984375 216.039062 91.636719 216.039062 98.589844 L 216.039062 114.183594 C 216.039062 115.015625 215.367188 115.691406 214.535156 115.691406 L 205.351562 115.691406 " fill-opacity="1" fill-rule="nonzero"/><g clip-path="url(#93e55a9e29)"><path fill="#541d56" d="M 203.414062 84.480469 L 135.859375 84.480469 C 128.0625 84.480469 121.726562 90.808594 121.726562 98.589844 L 121.726562 114.183594 C 121.726562 115.847656 123.074219 117.195312 124.742188 117.195312 L 133.925781 117.195312 C 135.59375 117.195312 136.945312 115.847656 136.945312 114.183594 L 136.945312 99.667969 L 202.328125 99.667969 L 202.328125 114.183594 C 202.328125 115.847656 203.679688 117.195312 205.351562 117.195312 L 214.535156 117.195312 C 216.199219 117.195312 217.550781 115.847656 217.550781 114.183594 L 217.550781 98.589844 C 217.550781 90.808594 211.210938 84.480469 203.414062 84.480469 Z M 203.414062 87.492188 C 209.546875 87.492188 214.535156 92.46875 214.535156 98.589844 L 214.535156 114.183594 L 205.351562 114.183594 L 205.351562 98.589844 C 205.351562 97.519531 204.484375 96.65625 203.414062 96.65625 L 135.859375 96.65625 C 134.789062 96.65625 133.925781 97.519531 133.925781 98.589844 L 133.925781 114.183594 L 124.742188 114.183594 L 124.742188 98.589844 C 124.742188 92.46875 129.730469 87.492188 135.859375 87.492188 L 203.414062 87.492188 " fill-opacity="1" fill-rule="nonzero"/></g><path fill="#dbd0ec" d="M 84.519531 242.074219 C 80.964844 242.074219 78.074219 239.183594 78.074219 235.632812 L 78.074219 120.097656 C 78.074219 116.546875 80.964844 113.660156 84.519531 113.660156 L 256.953125 113.660156 C 260.507812 113.660156 263.398438 116.546875 263.398438 120.097656 L 263.398438 235.632812 C 263.398438 239.183594 260.507812 242.074219 256.953125 242.074219 L 84.519531 242.074219 " fill-opacity="1" fill-rule="nonzero"/><path fill="#541d56" d="M 256.953125 112.152344 L 84.519531 112.152344 C 80.132812 112.152344 76.566406 115.714844 76.566406 120.097656 L 76.566406 235.632812 C 76.566406 240.015625 80.132812 243.582031 84.519531 243.582031 L 256.953125 243.582031 C 261.339844 243.582031 264.90625 240.015625 264.90625 235.632812 L 264.90625 120.097656 C 264.90625 115.714844 261.339844 112.152344 256.953125 112.152344 M 256.953125 115.167969 C 259.675781 115.167969 261.886719 117.375 261.886719 120.097656 L 261.886719 235.632812 C 261.886719 238.355469 259.675781 240.566406 256.953125 240.566406 L 84.519531 240.566406 C 81.792969 240.566406 79.585938 238.355469 79.585938 235.632812 L 79.585938 120.097656 C 79.585938 117.375 81.792969 115.167969 84.519531 115.167969 L 256.953125 115.167969 " fill-opacity="1" fill-rule="nonzero"/><path fill="#d0c2e6" d="M 256.953125 115.167969 L 231.902344 115.167969 L 231.902344 206.246094 C 231.902344 208.960938 229.691406 211.167969 226.960938 211.167969 L 79.585938 211.167969 L 79.585938 235.632812 C 79.585938 238.355469 81.792969 240.566406 84.519531 240.566406 L 256.953125 240.566406 C 259.675781 240.566406 261.886719 238.355469 261.886719 235.632812 L 261.886719 120.097656 C 261.886719 117.375 259.675781 115.167969 256.953125 115.167969 " fill-opacity="1" fill-rule="nonzero"/><path fill="#bcaadb" d="M 256.953125 115.167969 L 247.585938 115.167969 L 247.585938 219.980469 C 247.585938 222.707031 245.375 224.90625 242.648438 224.90625 L 79.585938 224.90625 L 79.585938 235.632812 C 79.585938 238.355469 81.792969 240.566406 84.519531 240.566406 L 256.953125 240.566406 C 259.675781 240.566406 261.886719 238.355469 261.886719 235.632812 L 261.886719 120.097656 C 261.886719 117.375 259.675781 115.167969 256.953125 115.167969 " fill-opacity="1" fill-rule="nonzero"/><path fill="#ffffff" d="M 86.019531 175.226562 L 86.019531 226.933594 C 86.019531 227.765625 86.699219 228.4375 87.53125 228.4375 C 88.363281 228.4375 89.042969 227.765625 89.042969 226.933594 L 89.042969 175.226562 C 89.042969 174.394531 88.363281 173.71875 87.53125 173.71875 C 86.699219 173.71875 86.019531 174.394531 86.019531 175.226562 " fill-opacity="1" fill-rule="nonzero"/><path fill="#dbd0ec" d="M 79.585938 162.871094 C 78.75 162.871094 78.074219 162.195312 78.074219 161.363281 L 78.074219 120.097656 C 78.074219 116.546875 80.964844 113.660156 84.519531 113.660156 L 256.953125 113.660156 C 260.507812 113.660156 263.398438 116.546875 263.398438 120.097656 L 263.398438 161.363281 C 263.398438 162.195312 262.722656 162.871094 261.886719 162.871094 L 79.585938 162.871094 " fill-opacity="1" fill-rule="nonzero"/><path fill="#541d56" d="M 256.953125 112.152344 L 84.519531 112.152344 C 80.132812 112.152344 76.566406 115.714844 76.566406 120.097656 L 76.566406 161.363281 C 76.566406 163.027344 77.917969 164.378906 79.585938 164.378906 L 261.886719 164.378906 C 263.554688 164.378906 264.90625 163.027344 264.90625 161.363281 L 264.90625 120.097656 C 264.90625 115.714844 261.339844 112.152344 256.953125 112.152344 M 256.953125 115.167969 C 259.675781 115.167969 261.886719 117.375 261.886719 120.097656 L 261.886719 161.363281 L 79.585938 161.363281 L 79.585938 120.097656 C 79.585938 117.375 81.792969 115.167969 84.519531 115.167969 L 256.953125 115.167969 " fill-opacity="1" fill-rule="nonzero"/><path fill="#bcaadb" d="M 256.953125 115.167969 L 245.746094 115.167969 L 245.746094 148.617188 L 79.585938 148.617188 L 79.585938 161.363281 L 261.886719 161.363281 L 261.886719 120.097656 C 261.886719 117.375 259.675781 115.167969 256.953125 115.167969 " fill-opacity="1" fill-rule="nonzero"/><path fill="#ffffff" d="M 88.878906 123.515625 L 154.59375 123.515625 C 155.425781 123.515625 156.101562 122.84375 156.101562 122.011719 C 156.101562 121.175781 155.425781 120.503906 154.59375 120.503906 L 88.878906 120.503906 C 88.042969 120.503906 87.367188 121.175781 87.367188 122.011719 C 87.367188 122.84375 88.042969 123.515625 88.878906 123.515625 " fill-opacity="1" fill-rule="nonzero"/><path fill="#a17ac4" d="M 181.0625 174.5 C 181.0625 176.363281 179.550781 177.867188 177.6875 177.867188 L 163.785156 177.867188 C 161.921875 177.867188 160.410156 176.363281 160.410156 174.5 L 160.410156 155.15625 C 160.410156 153.292969 161.921875 151.789062 163.785156 151.789062 L 177.6875 151.789062 C 179.550781 151.789062 181.0625 153.292969 181.0625 155.15625 L 181.0625 174.5 " fill-opacity="1" fill-rule="nonzero"/><path fill="#541d56" d="M 181.0625 174.5 L 179.550781 174.5 C 179.550781 175.019531 179.34375 175.476562 179.003906 175.816406 C 178.664062 176.15625 178.207031 176.363281 177.6875 176.363281 L 163.785156 176.363281 C 163.265625 176.363281 162.808594 176.15625 162.46875 175.816406 C 162.128906 175.476562 161.921875 175.019531 161.921875 174.5 L 161.921875 155.15625 C 161.925781 154.125 162.753906 153.300781 163.785156 153.296875 L 177.6875 153.296875 C 178.71875 153.300781 179.546875 154.125 179.550781 155.15625 L 179.550781 174.5 L 182.570312 174.5 L 182.570312 155.15625 C 182.566406 152.460938 180.382812 150.285156 177.6875 150.285156 L 163.785156 150.285156 C 161.089844 150.285156 158.902344 152.460938 158.902344 155.15625 L 158.902344 174.5 C 158.90625 177.191406 161.085938 179.371094 163.785156 179.375 L 177.6875 179.375 C 180.386719 179.371094 182.566406 177.191406 182.570312 174.5 L 181.0625 174.5 " fill-opacity="1" fill-rule="nonzero"/><path fill="#aca6b4" d="M 55.667969 282.445312 C 52.09375 282.445312 49.074219 279.894531 48.480469 276.375 L 33.976562 190.351562 C 33.65625 188.433594 34.101562 186.507812 35.230469 184.921875 C 36.355469 183.335938 38.035156 182.292969 39.957031 181.96875 L 70.574219 176.828125 C 70.796875 176.789062 71.019531 176.773438 71.238281 176.773438 C 72.734375 176.773438 74.128906 177.605469 74.824219 178.96875 L 76.566406 182.371094 L 76.566406 235.632812 C 76.566406 240.015625 80.132812 243.582031 84.519531 243.582031 L 173.328125 243.582031 L 175.269531 255.085938 C 175.933594 259.046875 173.25 262.804688 169.292969 263.472656 L 56.878906 282.339844 C 56.476562 282.410156 56.070312 282.445312 55.667969 282.445312 " fill-opacity="1" fill-rule="nonzero"/><path fill="#a399ae" d="M 79.585938 235.632812 L 79.585938 185.339844 L 86.019531 184.285156 L 86.019531 211.167969 L 79.585938 211.167969 L 79.585938 235.632812 M 167.859375 211.167969 L 89.042969 211.167969 L 89.042969 183.792969 L 154.0625 173.144531 C 154.464844 173.078125 154.871094 173.042969 155.273438 173.042969 C 156.585938 173.042969 157.828125 173.390625 158.902344 174.007812 L 158.902344 174.5 C 158.902344 176.742188 160.410156 178.625 162.472656 179.199219 L 167.859375 211.167969 " fill-opacity="1" fill-rule="nonzero"/><path fill="#3e143d" d="M 173.328125 243.582031 L 84.519531 243.582031 C 80.132812 243.582031 76.566406 240.015625 76.566406 235.632812 L 76.566406 182.371094 L 78.199219 185.566406 L 79.585938 185.339844 L 79.585938 235.632812 C 79.585938 238.355469 81.792969 240.566406 84.519531 240.566406 L 172.820312 240.566406 L 173.328125 243.582031 " fill-opacity="1" fill-rule="nonzero"/><path fill="#9a8fa9" d="M 79.585938 235.632812 L 79.585938 211.167969 L 86.019531 211.167969 L 86.019531 224.90625 L 79.585938 224.90625 L 79.585938 235.632812 M 170.179688 224.90625 L 89.042969 224.90625 L 89.042969 211.167969 L 167.859375 211.167969 L 170.179688 224.90625 " fill-opacity="1" fill-rule="nonzero"/><path fill="#8c7da1" d="M 172.820312 240.566406 L 84.519531 240.566406 C 81.792969 240.566406 79.585938 238.355469 79.585938 235.632812 L 79.585938 224.90625 L 86.019531 224.90625 L 86.019531 226.933594 C 86.019531 227.765625 86.699219 228.4375 87.53125 228.4375 C 88.363281 228.4375 89.042969 227.765625 89.042969 226.933594 L 89.042969 224.90625 L 170.179688 224.90625 L 172.820312 240.566406 " fill-opacity="1" fill-rule="nonzero"/><path fill="#bdbcbd" d="M 87.53125 228.4375 C 86.699219 228.4375 86.019531 227.765625 86.019531 226.933594 L 86.019531 184.285156 L 89.042969 183.792969 L 89.042969 226.933594 C 89.042969 227.765625 88.363281 228.4375 87.53125 228.4375 " fill-opacity="1" fill-rule="nonzero"/><path fill="#3e143d" d="M 162.472656 179.199219 C 160.410156 178.625 158.902344 176.742188 158.902344 174.5 L 158.902344 174.007812 C 160.742188 175.058594 162.085938 176.898438 162.457031 179.113281 L 162.472656 179.199219 " fill-opacity="1" fill-rule="nonzero"/><path fill="#aca6b4" d="M 237.117188 282.792969 C 235.3125 282.792969 233.574219 282.394531 231.9375 281.613281 L 227.464844 279.460938 C 226.824219 279.152344 226.199219 278.773438 225.554688 278.292969 C 225.398438 278.183594 225.257812 278.058594 225.113281 277.9375 C 224.617188 277.515625 224.261719 277.1875 223.929688 276.832031 C 223.734375 276.628906 223.558594 276.410156 223.378906 276.1875 C 223.105469 275.851562 222.855469 275.503906 222.621094 275.136719 C 222.464844 274.894531 222.304688 274.644531 222.164062 274.382812 C 221.96875 274.011719 221.796875 273.636719 221.640625 273.25 C 221.480469 272.875 221.390625 272.652344 221.316406 272.417969 C 221.179688 271.996094 221.082031 271.566406 220.992188 271.128906 C 220.898438 270.683594 220.832031 270.234375 220.789062 269.773438 C 220.746094 269.304688 220.710938 268.84375 220.726562 268.371094 C 220.734375 268.089844 220.769531 267.800781 220.804688 267.519531 L 220.832031 267.320312 C 220.863281 266.941406 220.882812 266.734375 220.921875 266.519531 C 220.945312 266.398438 220.976562 266.28125 221.019531 266.167969 C 221.234375 265.175781 221.515625 264.335938 221.890625 263.546875 L 231.53125 243.582031 L 256.953125 243.582031 C 261.339844 243.582031 264.90625 240.015625 264.90625 235.632812 L 264.90625 232.1875 L 266.460938 232.933594 C 267.464844 233.417969 267.886719 234.621094 267.402344 235.617188 L 247.886719 276.046875 C 245.910156 280.144531 241.679688 282.792969 237.117188 282.792969 M 264.90625 230 L 264.90625 134.515625 C 269.332031 133.136719 273.988281 132.402344 278.738281 132.402344 C 285.78125 132.402344 292.589844 133.957031 298.976562 137.035156 C 310.117188 142.382812 318.539062 151.734375 322.691406 163.363281 C 322.945312 164.066406 323.171875 164.761719 323.390625 165.464844 C 323.621094 166.222656 323.820312 166.9375 324.003906 167.664062 C 324.1875 168.40625 324.351562 169.136719 324.503906 169.871094 C 324.652344 170.609375 324.78125 171.34375 324.890625 172.078125 C 325.007812 172.828125 325.097656 173.558594 325.171875 174.289062 C 325.253906 175.074219 325.308594 175.792969 325.347656 176.519531 C 325.394531 177.316406 325.410156 178.023438 325.414062 178.730469 C 325.421875 179.585938 325.40625 180.273438 325.375 180.964844 L 325.371094 181.1875 C 325.339844 181.84375 325.292969 182.5 325.234375 183.160156 L 325.210938 183.472656 C 325.148438 184.101562 325.066406 184.71875 324.980469 185.34375 L 324.929688 185.769531 C 324.84375 186.363281 324.734375 186.960938 324.625 187.554688 L 324.539062 188.054688 C 324.421875 188.621094 324.289062 189.191406 324.152344 189.753906 L 324.027344 190.328125 C 323.902344 190.820312 323.757812 191.316406 323.613281 191.808594 L 323.398438 192.589844 C 323.261719 193.03125 323.109375 193.472656 322.957031 193.914062 L 322.648438 194.832031 C 322.5 195.230469 322.339844 195.632812 322.179688 196.027344 L 321.777344 197.054688 C 321.464844 197.789062 321.136719 198.519531 320.785156 199.246094 C 313.050781 215.273438 296.527344 225.625 278.691406 225.625 L 278.6875 225.625 C 274.972656 225.625 271.269531 225.179688 267.664062 224.300781 L 264.90625 230 " fill-opacity="1" fill-rule="nonzero"/><path fill="#3e143d" d="M 256.953125 243.582031 L 231.53125 243.582031 L 232.988281 240.566406 L 256.953125 240.566406 C 259.675781 240.566406 261.886719 238.355469 261.886719 235.632812 L 261.886719 164.378906 C 263.554688 164.378906 264.90625 163.027344 264.90625 161.363281 L 264.90625 230 L 264.050781 231.773438 L 264.90625 232.1875 L 264.90625 235.632812 C 264.90625 240.015625 261.339844 243.582031 256.953125 243.582031 " fill-opacity="1" fill-rule="nonzero"/><path fill="#9a8fa9" d="M 242.648438 224.90625 L 240.542969 224.90625 L 241.40625 223.125 C 241.636719 222.640625 242.050781 222.273438 242.558594 222.097656 C 242.773438 222.019531 242.996094 221.984375 243.21875 221.984375 C 243.519531 221.984375 243.816406 222.050781 244.09375 222.183594 L 246.335938 223.261719 C 245.433594 224.269531 244.113281 224.90625 242.648438 224.90625 M 247.015625 222.285156 L 247.175781 221.949219 C 247.128906 222.066406 247.074219 222.175781 247.015625 222.285156 M 247.585938 213.773438 C 247.1875 213.417969 246.820312 213.078125 246.453125 212.726562 L 246.0625 212.347656 C 245.441406 211.742188 244.964844 211.246094 244.496094 210.742188 L 244.046875 210.261719 C 243.464844 209.621094 242.902344 208.960938 242.359375 208.292969 C 241.738281 207.523438 241.175781 206.78125 240.632812 206.011719 L 240.515625 205.847656 C 240.035156 205.160156 239.578125 204.464844 239.132812 203.757812 L 238.898438 203.375 C 238.472656 202.679688 238.058594 201.964844 237.664062 201.242188 L 237.558594 201.050781 C 236.675781 199.40625 235.890625 197.695312 235.207031 195.949219 C 234.867188 195.074219 234.5625 194.210938 234.28125 193.339844 C 233.371094 190.511719 232.753906 187.738281 232.390625 184.957031 L 232.390625 184.929688 C 231.492188 177.976562 232.175781 170.972656 234.367188 164.378906 L 247.585938 164.378906 L 247.585938 213.773438 " fill-opacity="1" fill-rule="nonzero"/><path fill="#8c7da1" d="M 256.953125 240.566406 L 232.988281 240.566406 L 240.542969 224.90625 L 242.648438 224.90625 C 244.113281 224.90625 245.433594 224.269531 246.335938 223.261719 L 246.503906 223.339844 L 247.015625 222.285156 C 247.074219 222.175781 247.128906 222.066406 247.175781 221.949219 L 250.109375 215.875 C 249.546875 215.4375 248.996094 214.996094 248.457031 214.535156 L 248.277344 214.382812 C 248.039062 214.171875 247.808594 213.972656 247.585938 213.773438 L 247.585938 164.378906 L 261.886719 164.378906 L 261.886719 235.632812 C 261.886719 238.355469 259.675781 240.566406 256.953125 240.566406 " fill-opacity="1" fill-rule="nonzero"/><path fill="#a399ae" d="M 245.746094 148.617188 L 243.339844 148.617188 C 244.109375 147.726562 244.914062 146.871094 245.746094 146.046875 L 245.746094 148.617188 " fill-opacity="1" fill-rule="nonzero"/><path fill="#3e143d" d="M 261.886719 164.378906 L 234.367188 164.378906 C 234.703125 163.359375 235.074219 162.355469 235.484375 161.363281 L 261.886719 161.363281 L 261.886719 135.574219 C 262.878906 135.1875 263.886719 134.835938 264.90625 134.515625 L 264.90625 161.363281 C 264.90625 163.027344 263.554688 164.378906 261.886719 164.378906 " fill-opacity="1" fill-rule="nonzero"/><path fill="#8c7da1" d="M 261.886719 161.363281 L 235.484375 161.363281 C 235.839844 160.496094 236.222656 159.640625 236.632812 158.792969 C 238.425781 155.074219 240.691406 151.667969 243.339844 148.617188 L 245.746094 148.617188 L 245.746094 146.046875 C 250.34375 141.492188 255.855469 137.917969 261.886719 135.574219 L 261.886719 161.363281 " fill-opacity="1" fill-rule="nonzero"/><path fill="#6b47a7" d="M 51.640625 283.96875 C 49.300781 283.96875 47.324219 282.296875 46.9375 279.992188 L 32.433594 193.96875 C 32.21875 192.71875 32.507812 191.457031 33.25 190.417969 C 33.988281 189.378906 35.089844 188.691406 36.347656 188.480469 L 66.957031 183.339844 C 67.039062 183.328125 67.128906 183.316406 67.210938 183.316406 C 67.773438 183.316406 68.296875 183.628906 68.554688 184.144531 L 72.757812 192.378906 L 150.460938 179.65625 C 150.714844 179.613281 150.984375 179.59375 151.246094 179.59375 C 153.582031 179.59375 155.558594 181.261719 155.949219 183.566406 L 168.757812 259.539062 C 169.195312 262.132812 167.4375 264.597656 164.84375 265.03125 L 52.4375 283.902344 C 52.171875 283.949219 51.902344 283.96875 51.640625 283.96875 " fill-opacity="1" fill-rule="nonzero"/><g clip-path="url(#aaa94f5dd8)"><path fill="#541d56" d="M 151.246094 178.085938 C 150.898438 178.085938 150.546875 178.113281 150.203125 178.171875 L 73.601562 190.714844 L 69.898438 183.457031 C 69.378906 182.4375 68.332031 181.808594 67.210938 181.808594 C 67.042969 181.808594 66.875 181.828125 66.707031 181.851562 L 36.097656 186.996094 C 34.441406 187.273438 32.992188 188.175781 32.019531 189.542969 C 31.046875 190.90625 30.664062 192.570312 30.941406 194.222656 L 45.445312 280.246094 C 45.957031 283.277344 48.5625 285.476562 51.640625 285.476562 C 51.988281 285.476562 52.339844 285.445312 52.683594 285.390625 L 165.09375 266.515625 C 168.507812 265.945312 170.820312 262.703125 170.25 259.292969 L 157.4375 183.316406 C 156.925781 180.285156 154.324219 178.085938 151.246094 178.085938 Z M 151.246094 181.101562 C 152.808594 181.101562 154.191406 182.226562 154.460938 183.816406 L 167.269531 259.789062 C 167.570312 261.570312 166.371094 263.25 164.589844 263.546875 L 52.183594 282.417969 C 52 282.445312 51.820312 282.460938 51.640625 282.460938 C 50.074219 282.460938 48.695312 281.335938 48.425781 279.746094 L 33.917969 193.722656 C 33.621094 191.945312 34.820312 190.265625 36.59375 189.964844 L 67.210938 184.824219 L 71.914062 194.042969 L 150.703125 181.144531 C 150.886719 181.117188 151.066406 181.101562 151.246094 181.101562 " fill-opacity="1" fill-rule="nonzero"/></g><path fill="#693da1" d="M 150.703125 181.144531 L 134.371094 183.886719 L 144.492188 243.914062 C 144.789062 245.6875 143.589844 247.367188 141.8125 247.667969 L 45.734375 263.796875 L 48.425781 279.746094 C 48.726562 281.519531 50.410156 282.71875 52.183594 282.417969 L 164.589844 263.546875 C 166.371094 263.25 167.570312 261.570312 167.269531 259.789062 L 154.460938 183.816406 C 154.160156 182.042969 152.476562 180.847656 150.703125 181.144531 " fill-opacity="1" fill-rule="nonzero"/><path fill="#5b3493" d="M 150.703125 181.144531 L 144.597656 182.171875 L 156.230469 251.152344 C 156.527344 252.925781 155.328125 254.605469 153.546875 254.90625 L 47.246094 272.753906 L 48.425781 279.746094 C 48.726562 281.519531 50.410156 282.71875 52.183594 282.417969 L 164.589844 263.546875 C 166.371094 263.25 167.570312 261.570312 167.269531 259.789062 L 154.460938 183.816406 C 154.160156 182.042969 152.476562 180.847656 150.703125 181.144531 " fill-opacity="1" fill-rule="nonzero"/><path fill="#ffffff" d="M 38.261719 193.816406 L 43.085938 222.457031 C 43.222656 223.28125 44.003906 223.832031 44.828125 223.695312 C 45.648438 223.558594 46.203125 222.78125 46.066406 221.957031 L 41.242188 193.320312 C 41.101562 192.5 40.320312 191.945312 39.5 192.082031 C 38.675781 192.222656 38.125 193 38.261719 193.816406 " fill-opacity="1" fill-rule="nonzero"/><path fill="#9995d2" d="M 268.84375 232.605469 C 268.625 232.605469 268.398438 232.554688 268.191406 232.453125 L 254.273438 225.761719 C 253.914062 225.589844 253.636719 225.28125 253.5 224.902344 C 253.371094 224.527344 253.394531 224.113281 253.570312 223.75 L 260.511719 209.367188 C 260.773438 208.828125 261.3125 208.515625 261.875 208.515625 C 262.09375 208.515625 262.316406 208.566406 262.527344 208.667969 L 276.445312 215.355469 C 276.804688 215.53125 277.082031 215.839844 277.214844 216.214844 C 277.347656 216.59375 277.320312 217.007812 277.148438 217.367188 L 270.203125 231.75 C 269.945312 232.289062 269.40625 232.605469 268.84375 232.605469 " fill-opacity="1" fill-rule="nonzero"/><path fill="#541d56" d="M 261.878906 207.007812 C 260.753906 207.007812 259.671875 207.636719 259.152344 208.714844 L 252.207031 223.097656 C 251.859375 223.816406 251.8125 224.644531 252.078125 225.402344 C 252.34375 226.152344 252.894531 226.773438 253.617188 227.121094 L 267.535156 233.8125 C 267.957031 234.015625 268.402344 234.109375 268.839844 234.109375 C 269.964844 234.109375 271.042969 233.484375 271.566406 232.40625 L 278.507812 218.023438 C 278.859375 217.300781 278.90625 216.472656 278.640625 215.71875 C 278.375 214.964844 277.824219 214.34375 277.101562 213.996094 L 263.183594 207.308594 C 262.761719 207.105469 262.3125 207.007812 261.878906 207.007812 Z M 261.875 210.023438 L 275.789062 216.710938 L 268.84375 231.097656 L 254.929688 224.40625 L 261.875 210.023438 " fill-opacity="1" fill-rule="nonzero"/><path fill="#9995d2" d="M 286.164062 223.519531 C 279.195312 223.519531 272.460938 221.980469 266.140625 218.941406 C 243.1875 207.90625 233.511719 180.296875 244.566406 157.390625 C 252.222656 141.535156 268.574219 131.289062 286.222656 131.289062 C 293.183594 131.289062 299.921875 132.828125 306.242188 135.867188 C 317.363281 141.210938 325.726562 150.558594 329.800781 162.179688 C 333.875 173.804688 333.171875 186.320312 327.8125 197.410156 C 320.15625 213.273438 303.808594 223.519531 286.164062 223.519531 " fill-opacity="1" fill-rule="nonzero"/><path fill="#541d56" d="M 286.222656 129.78125 L 286.222656 132.796875 L 286.222656 129.78125 C 277.371094 129.78125 268.699219 132.234375 261.144531 136.875 C 253.382812 141.640625 247.179688 148.507812 243.207031 156.738281 C 231.789062 180.390625 241.785156 208.902344 265.484375 220.296875 C 272.011719 223.4375 278.96875 225.027344 286.164062 225.027344 C 295.015625 225.027344 303.683594 222.574219 311.238281 217.933594 C 319 213.164062 325.203125 206.296875 329.171875 198.066406 C 334.703125 186.609375 335.433594 173.6875 331.226562 161.683594 C 327.019531 149.679688 318.382812 140.027344 306.898438 134.511719 C 300.371094 131.371094 293.414062 129.78125 286.222656 129.78125 Z M 286.222656 132.796875 C 292.726562 132.796875 299.335938 134.21875 305.585938 137.226562 C 327.824219 147.914062 337.167969 174.566406 326.453125 196.757812 C 318.753906 212.710938 302.789062 222.011719 286.164062 222.011719 C 279.65625 222.011719 273.050781 220.585938 266.792969 217.582031 C 244.558594 206.890625 235.214844 180.238281 245.929688 158.046875 C 253.628906 142.097656 269.59375 132.796875 286.222656 132.796875 " fill-opacity="1" fill-rule="nonzero"/><path fill="#8e8bce" d="M 328.28125 162.421875 C 329.347656 170.691406 328.117188 179.359375 324.21875 187.429688 C 313.507812 209.621094 286.796875 218.945312 264.558594 208.253906 C 253.535156 202.957031 245.679688 193.722656 241.871094 183.058594 C 243.738281 197.519531 252.652344 210.785156 266.792969 217.582031 C 289.035156 228.273438 315.742188 218.953125 326.453125 196.757812 C 331.851562 185.574219 332.152344 173.257812 328.28125 162.421875 " fill-opacity="1" fill-rule="nonzero"/><path fill="#81c8e9" d="M 286.167969 213.195312 C 280.761719 213.195312 275.535156 211.996094 270.632812 209.636719 C 262 205.492188 255.511719 198.238281 252.347656 189.214844 C 249.183594 180.195312 249.734375 170.484375 253.890625 161.875 C 259.832031 149.566406 272.519531 141.613281 286.214844 141.613281 C 291.621094 141.613281 296.851562 142.8125 301.75 145.167969 C 310.382812 149.316406 316.875 156.566406 320.035156 165.589844 C 323.199219 174.609375 322.648438 184.320312 318.492188 192.929688 C 312.554688 205.242188 299.863281 213.195312 286.167969 213.195312 " fill-opacity="1" fill-rule="nonzero"/><path fill="#541d56" d="M 286.21875 140.105469 L 286.21875 143.121094 L 286.21875 140.105469 L 286.214844 140.105469 C 271.941406 140.105469 258.71875 148.394531 252.53125 161.21875 C 248.199219 170.191406 247.625 180.308594 250.921875 189.714844 C 254.21875 199.117188 260.984375 206.675781 269.972656 210.996094 C 275.085938 213.453125 280.535156 214.703125 286.167969 214.703125 C 300.4375 214.703125 313.664062 206.410156 319.851562 193.585938 C 324.1875 184.613281 324.757812 174.496094 321.460938 165.089844 C 318.167969 155.691406 311.402344 148.132812 302.40625 143.808594 C 297.296875 141.355469 291.851562 140.105469 286.21875 140.105469 Z M 286.214844 143.121094 C 291.214844 143.121094 296.292969 144.214844 301.097656 146.527344 C 318.1875 154.738281 325.367188 175.222656 317.132812 192.277344 C 311.21875 204.535156 298.945312 211.683594 286.167969 211.683594 C 281.167969 211.683594 276.09375 210.589844 271.285156 208.28125 C 254.199219 200.066406 247.015625 179.578125 255.25 162.527344 C 261.164062 150.269531 273.4375 143.125 286.214844 143.121094 " fill-opacity="1" fill-rule="nonzero"/><path fill="#ffffff" d="M 265.863281 159.589844 C 271.035156 153.714844 278.511719 150.40625 286.21875 150.40625 C 287.164062 150.40625 288.109375 150.457031 289.058594 150.558594 C 289.886719 150.644531 290.628906 150.046875 290.71875 149.21875 C 290.808594 148.394531 290.207031 147.652344 289.378906 147.5625 C 288.320312 147.449219 287.269531 147.394531 286.21875 147.394531 C 277.648438 147.394531 269.347656 151.0625 263.59375 157.601562 C 263.046875 158.226562 263.109375 159.179688 263.734375 159.726562 C 264.359375 160.277344 265.316406 160.214844 265.863281 159.589844 " fill-opacity="1" fill-rule="nonzero"/><path fill="#74c5e8" d="M 312.226562 155.0625 C 312.664062 160.863281 311.65625 166.839844 308.945312 172.453125 C 300.710938 189.503906 280.1875 196.667969 263.097656 188.457031 C 258.691406 186.335938 254.957031 183.394531 251.960938 179.910156 C 252.84375 191.726562 259.820312 202.769531 271.285156 208.28125 C 288.371094 216.5 308.902344 209.332031 317.132812 192.277344 C 323.242188 179.621094 320.847656 165.082031 312.226562 155.0625 " fill-opacity="1" fill-rule="nonzero"/><path fill="#65c0e7" d="M 313.238281 156.328125 C 316.808594 165.011719 316.855469 175.101562 312.449219 184.21875 C 304.21875 201.273438 283.6875 208.4375 266.601562 200.226562 C 261.675781 197.855469 257.609375 194.449219 254.460938 190.417969 C 257.566406 197.972656 263.335938 204.460938 271.285156 208.28125 C 288.371094 216.5 308.902344 209.332031 317.132812 192.277344 C 322.992188 180.140625 321.015625 166.28125 313.238281 156.328125 " fill-opacity="1" fill-rule="nonzero"/><path fill="#9995d2" d="M 244.601562 280.675781 C 242.875 280.675781 241.207031 280.296875 239.640625 279.539062 L 235.167969 277.390625 C 232.414062 276.066406 230.34375 273.753906 229.332031 270.875 C 228.324219 267.996094 228.5 264.894531 229.824219 262.152344 L 249.339844 221.722656 C 249.601562 221.183594 250.140625 220.867188 250.703125 220.867188 C 250.921875 220.867188 251.144531 220.917969 251.355469 221.019531 L 273.726562 231.773438 C 274.085938 231.945312 274.363281 232.257812 274.496094 232.632812 C 274.628906 233.007812 274.609375 233.421875 274.433594 233.78125 L 254.917969 274.210938 C 253.019531 278.140625 248.972656 280.675781 244.601562 280.675781 " fill-opacity="1" fill-rule="nonzero"/><path fill="#541d56" d="M 250.703125 219.359375 C 249.582031 219.359375 248.5 219.992188 247.980469 221.066406 L 228.464844 261.496094 C 226.964844 264.605469 226.765625 268.109375 227.910156 271.371094 C 229.050781 274.628906 231.394531 277.25 234.507812 278.746094 L 238.984375 280.898438 C 240.757812 281.753906 242.644531 282.183594 244.601562 282.183594 C 249.546875 282.183594 254.128906 279.3125 256.277344 274.867188 L 275.792969 234.4375 C 276.140625 233.714844 276.1875 232.886719 275.921875 232.136719 C 275.65625 231.378906 275.101562 230.761719 274.382812 230.414062 L 252.011719 219.664062 C 251.589844 219.460938 251.140625 219.359375 250.703125 219.359375 Z M 250.703125 222.378906 L 273.070312 233.128906 L 253.554688 273.554688 C 251.84375 277.101562 248.296875 279.171875 244.601562 279.171875 C 243.15625 279.171875 241.6875 278.851562 240.296875 278.183594 L 235.820312 276.03125 C 230.882812 273.660156 228.808594 267.730469 231.183594 262.804688 L 250.703125 222.378906 " fill-opacity="1" fill-rule="nonzero"/><path fill="#8e8bce" d="M 266.109375 229.78125 L 249.707031 263.769531 C 247.328125 268.695312 241.394531 270.765625 236.449219 268.390625 L 231.976562 266.242188 C 231.40625 265.964844 230.875 265.636719 230.382812 265.277344 C 229.570312 269.574219 231.6875 274.046875 235.820312 276.03125 L 240.296875 278.183594 C 245.238281 280.558594 251.175781 278.488281 253.554688 273.554688 L 273.070312 233.128906 L 266.109375 229.78125 " fill-opacity="1" fill-rule="nonzero"/><path fill="#ffffff" d="M 250.902344 227.816406 L 239.230469 252.003906 C 238.867188 252.75 239.183594 253.652344 239.9375 254.015625 C 240.6875 254.375 241.589844 254.058594 241.953125 253.308594 L 253.621094 229.125 C 253.984375 228.375 253.667969 227.476562 252.917969 227.113281 C 252.167969 226.753906 251.261719 227.070312 250.902344 227.816406 " fill-opacity="1" fill-rule="nonzero"/><g fill="#000000" fill-opacity="1"><g transform="translate(73.045466, 2.02712)"><g><path d="M 0.75 0.015625 C 0.675781 0.015625 0.601562 0.00390625 0.53125 -0.015625 C 0.46875 -0.046875 0.414062 -0.09375 0.375 -0.15625 L 0.359375 -0.15625 C 0.367188 -0.0820312 0.375 -0.015625 0.375 0.046875 L 0.375 0.546875 L 0.1875 0.546875 L 0.1875 -1.203125 L 0.34375 -1.203125 L 0.359375 -1.046875 L 0.375 -1.046875 C 0.425781 -1.109375 0.484375 -1.148438 0.546875 -1.171875 C 0.609375 -1.203125 0.675781 -1.21875 0.75 -1.21875 C 0.914062 -1.21875 1.039062 -1.164062 1.125 -1.0625 C 1.207031 -0.957031 1.25 -0.804688 1.25 -0.609375 C 1.25 -0.410156 1.203125 -0.253906 1.109375 -0.140625 C 1.023438 -0.0351562 0.90625 0.015625 0.75 0.015625 Z M 0.734375 -1.078125 C 0.609375 -1.078125 0.515625 -1.039062 0.453125 -0.96875 C 0.398438 -0.894531 0.375 -0.785156 0.375 -0.640625 L 0.375 -0.609375 C 0.375 -0.429688 0.398438 -0.304688 0.453125 -0.234375 C 0.515625 -0.160156 0.609375 -0.125 0.734375 -0.125 C 0.835938 -0.125 0.914062 -0.164062 0.96875 -0.25 C 1.03125 -0.34375 1.0625 -0.460938 1.0625 -0.609375 C 1.0625 -0.753906 1.03125 -0.867188 0.96875 -0.953125 C 0.914062 -1.035156 0.835938 -1.078125 0.734375 -1.078125 Z M 0.734375 -1.078125 "/></g></g><g transform="translate(74.425694, 2.02712)"><g><path d="M 0.75 -1.21875 C 0.800781 -1.21875 0.847656 -1.21875 0.890625 -1.21875 L 0.859375 -1.046875 C 0.804688 -1.054688 0.765625 -1.0625 0.734375 -1.0625 C 0.628906 -1.0625 0.539062 -1.019531 0.46875 -0.9375 C 0.40625 -0.863281 0.375 -0.765625 0.375 -0.640625 L 0.375 0 L 0.1875 0 L 0.1875 -1.203125 L 0.34375 -1.203125 L 0.359375 -0.984375 L 0.375 -0.984375 C 0.414062 -1.054688 0.46875 -1.113281 0.53125 -1.15625 C 0.59375 -1.195312 0.664062 -1.21875 0.75 -1.21875 Z M 0.75 -1.21875 "/></g></g><g transform="translate(75.345112, 2.02712)"><g><path d="M 0.703125 0.015625 C 0.523438 0.015625 0.382812 -0.0351562 0.28125 -0.140625 C 0.175781 -0.242188 0.125 -0.394531 0.125 -0.59375 C 0.125 -0.789062 0.171875 -0.941406 0.265625 -1.046875 C 0.359375 -1.160156 0.488281 -1.21875 0.65625 -1.21875 C 0.800781 -1.21875 0.914062 -1.164062 1 -1.0625 C 1.09375 -0.96875 1.140625 -0.84375 1.140625 -0.6875 L 1.140625 -0.5625 L 0.3125 -0.5625 C 0.320312 -0.425781 0.359375 -0.320312 0.421875 -0.25 C 0.492188 -0.175781 0.585938 -0.140625 0.703125 -0.140625 C 0.835938 -0.140625 0.96875 -0.164062 1.09375 -0.21875 L 1.09375 -0.0625 C 1.03125 -0.03125 0.96875 -0.0078125 0.90625 0 C 0.851562 0.0078125 0.785156 0.015625 0.703125 0.015625 Z M 0.65625 -1.078125 C 0.550781 -1.078125 0.46875 -1.046875 0.40625 -0.984375 C 0.351562 -0.921875 0.320312 -0.832031 0.3125 -0.71875 L 0.953125 -0.71875 C 0.953125 -0.832031 0.925781 -0.921875 0.875 -0.984375 C 0.820312 -1.046875 0.75 -1.078125 0.65625 -1.078125 Z M 0.65625 -1.078125 "/></g></g><g transform="translate(76.608763, 2.02712)"><g><path d="M 0.046875 0.546875 C -0.0234375 0.546875 -0.0820312 0.535156 -0.125 0.515625 L -0.125 0.359375 C -0.0703125 0.378906 -0.0195312 0.390625 0.03125 0.390625 C 0.0820312 0.390625 0.117188 0.375 0.140625 0.34375 C 0.171875 0.3125 0.1875 0.265625 0.1875 0.203125 L 0.1875 -1.203125 L 0.375 -1.203125 L 0.375 0.1875 C 0.375 0.425781 0.265625 0.546875 0.046875 0.546875 Z M 0.171875 -1.53125 C 0.171875 -1.570312 0.179688 -1.601562 0.203125 -1.625 C 0.222656 -1.644531 0.25 -1.65625 0.28125 -1.65625 C 0.3125 -1.65625 0.335938 -1.644531 0.359375 -1.625 C 0.378906 -1.601562 0.390625 -1.570312 0.390625 -1.53125 C 0.390625 -1.488281 0.378906 -1.457031 0.359375 -1.4375 C 0.335938 -1.414062 0.3125 -1.40625 0.28125 -1.40625 C 0.25 -1.40625 0.222656 -1.414062 0.203125 -1.4375 C 0.179688 -1.457031 0.171875 -1.488281 0.171875 -1.53125 Z M 0.171875 -1.53125 "/></g></g><g transform="translate(77.17845, 2.02712)"><g><path d="M 0.359375 -1.203125 L 0.359375 -0.421875 C 0.359375 -0.328125 0.378906 -0.253906 0.421875 -0.203125 C 0.472656 -0.148438 0.546875 -0.125 0.640625 -0.125 C 0.765625 -0.125 0.851562 -0.160156 0.90625 -0.234375 C 0.96875 -0.304688 1 -0.421875 1 -0.578125 L 1 -1.203125 L 1.1875 -1.203125 L 1.1875 0 L 1.03125 0 L 1.015625 -0.15625 L 1 -0.15625 C 0.957031 -0.101562 0.90625 -0.0625 0.84375 -0.03125 C 0.78125 0 0.707031 0.015625 0.625 0.015625 C 0.476562 0.015625 0.367188 -0.015625 0.296875 -0.078125 C 0.222656 -0.148438 0.1875 -0.265625 0.1875 -0.421875 L 0.1875 -1.203125 Z M 0.359375 -1.203125 "/></g></g><g transform="translate(78.560877, 2.02712)"><g><path d="M 0.75 -1.21875 C 0.90625 -1.21875 1.023438 -1.164062 1.109375 -1.0625 C 1.203125 -0.957031 1.25 -0.804688 1.25 -0.609375 C 1.25 -0.410156 1.203125 -0.253906 1.109375 -0.140625 C 1.023438 -0.0351562 0.90625 0.015625 0.75 0.015625 C 0.675781 0.015625 0.601562 0.00390625 0.53125 -0.015625 C 0.46875 -0.046875 0.414062 -0.09375 0.375 -0.15625 L 0.359375 -0.15625 L 0.328125 0 L 0.1875 0 L 0.1875 -1.703125 L 0.375 -1.703125 L 0.375 -1.296875 C 0.375 -1.203125 0.367188 -1.117188 0.359375 -1.046875 L 0.375 -1.046875 C 0.457031 -1.160156 0.582031 -1.21875 0.75 -1.21875 Z M 0.734375 -1.078125 C 0.609375 -1.078125 0.515625 -1.039062 0.453125 -0.96875 C 0.398438 -0.894531 0.375 -0.773438 0.375 -0.609375 C 0.375 -0.429688 0.398438 -0.304688 0.453125 -0.234375 C 0.515625 -0.160156 0.609375 -0.125 0.734375 -0.125 C 0.847656 -0.125 0.929688 -0.164062 0.984375 -0.25 C 1.035156 -0.332031 1.0625 -0.453125 1.0625 -0.609375 C 1.0625 -0.765625 1.035156 -0.878906 0.984375 -0.953125 C 0.929688 -1.035156 0.847656 -1.078125 0.734375 -1.078125 Z M 0.734375 -1.078125 "/></g></g><g transform="translate(79.941105, 2.02712)"><g><path d="M 0.375 0 L 0.1875 0 L 0.1875 -1.203125 L 0.375 -1.203125 Z M 0.171875 -1.53125 C 0.171875 -1.570312 0.179688 -1.601562 0.203125 -1.625 C 0.222656 -1.644531 0.25 -1.65625 0.28125 -1.65625 C 0.3125 -1.65625 0.335938 -1.644531 0.359375 -1.625 C 0.378906 -1.601562 0.390625 -1.570312 0.390625 -1.53125 C 0.390625 -1.488281 0.378906 -1.457031 0.359375 -1.4375 C 0.335938 -1.414062 0.3125 -1.40625 0.28125 -1.40625 C 0.25 -1.40625 0.222656 -1.414062 0.203125 -1.4375 C 0.179688 -1.457031 0.171875 -1.488281 0.171875 -1.53125 Z M 0.171875 -1.53125 "/></g></g><g transform="translate(80.510792, 2.02712)"><g><path d="M 0.375 0 L 0.1875 0 L 0.1875 -1.703125 L 0.375 -1.703125 Z M 0.375 0 "/></g></g><g transform="translate(81.08048, 2.02712)"><g><path d="M 0.9375 0 L 0.890625 -0.171875 C 0.828125 -0.0976562 0.765625 -0.046875 0.703125 -0.015625 C 0.648438 0.00390625 0.578125 0.015625 0.484375 0.015625 C 0.367188 0.015625 0.273438 -0.0078125 0.203125 -0.0625 C 0.140625 -0.125 0.109375 -0.210938 0.109375 -0.328125 C 0.109375 -0.578125 0.300781 -0.707031 0.6875 -0.71875 L 0.890625 -0.71875 L 0.890625 -0.796875 C 0.890625 -0.890625 0.867188 -0.957031 0.828125 -1 C 0.785156 -1.050781 0.722656 -1.078125 0.640625 -1.078125 C 0.535156 -1.078125 0.421875 -1.046875 0.296875 -0.984375 L 0.234375 -1.125 C 0.296875 -1.15625 0.363281 -1.175781 0.4375 -1.1875 C 0.507812 -1.207031 0.578125 -1.21875 0.640625 -1.21875 C 0.785156 -1.21875 0.890625 -1.1875 0.953125 -1.125 C 1.023438 -1.0625 1.0625 -0.960938 1.0625 -0.828125 L 1.0625 0 Z M 0.515625 -0.125 C 0.628906 -0.125 0.71875 -0.15625 0.78125 -0.21875 C 0.851562 -0.28125 0.890625 -0.367188 0.890625 -0.484375 L 0.890625 -0.59375 L 0.703125 -0.578125 C 0.554688 -0.578125 0.453125 -0.554688 0.390625 -0.515625 C 0.328125 -0.472656 0.296875 -0.410156 0.296875 -0.328125 C 0.296875 -0.265625 0.316406 -0.210938 0.359375 -0.171875 C 0.398438 -0.140625 0.453125 -0.125 0.515625 -0.125 Z M 0.515625 -0.125 "/></g></g><g transform="translate(82.333133, 2.02712)"><g><path d="M 1.015625 -0.15625 L 1 -0.15625 C 0.914062 -0.0390625 0.789062 0.015625 0.625 0.015625 C 0.46875 0.015625 0.34375 -0.0351562 0.25 -0.140625 C 0.164062 -0.242188 0.125 -0.394531 0.125 -0.59375 C 0.125 -0.789062 0.164062 -0.941406 0.25 -1.046875 C 0.34375 -1.160156 0.46875 -1.21875 0.625 -1.21875 C 0.789062 -1.21875 0.914062 -1.160156 1 -1.046875 L 1.015625 -1.046875 L 1 -1.140625 L 1 -1.703125 L 1.1875 -1.703125 L 1.1875 0 L 1.03125 0 Z M 0.640625 -0.125 C 0.765625 -0.125 0.851562 -0.15625 0.90625 -0.21875 C 0.96875 -0.289062 1 -0.40625 1 -0.5625 L 1 -0.59375 C 1 -0.769531 0.96875 -0.894531 0.90625 -0.96875 C 0.851562 -1.039062 0.765625 -1.078125 0.640625 -1.078125 C 0.535156 -1.078125 0.453125 -1.035156 0.390625 -0.953125 C 0.335938 -0.867188 0.3125 -0.75 0.3125 -0.59375 C 0.3125 -0.4375 0.335938 -0.316406 0.390625 -0.234375 C 0.453125 -0.160156 0.535156 -0.125 0.640625 -0.125 Z M 0.640625 -0.125 "/></g></g><g transform="translate(83.71336, 2.02712)"><g><path d="M 1.234375 -0.609375 C 1.234375 -0.410156 1.179688 -0.253906 1.078125 -0.140625 C 0.984375 -0.0351562 0.847656 0.015625 0.671875 0.015625 C 0.566406 0.015625 0.472656 -0.00390625 0.390625 -0.046875 C 0.304688 -0.0976562 0.238281 -0.171875 0.1875 -0.265625 C 0.144531 -0.359375 0.125 -0.472656 0.125 -0.609375 C 0.125 -0.796875 0.171875 -0.941406 0.265625 -1.046875 C 0.367188 -1.160156 0.507812 -1.21875 0.6875 -1.21875 C 0.851562 -1.21875 0.984375 -1.160156 1.078125 -1.046875 C 1.179688 -0.941406 1.234375 -0.796875 1.234375 -0.609375 Z M 0.3125 -0.609375 C 0.3125 -0.453125 0.34375 -0.332031 0.40625 -0.25 C 0.46875 -0.164062 0.554688 -0.125 0.671875 -0.125 C 0.796875 -0.125 0.890625 -0.164062 0.953125 -0.25 C 1.015625 -0.332031 1.046875 -0.453125 1.046875 -0.609375 C 1.046875 -0.753906 1.015625 -0.867188 0.953125 -0.953125 C 0.890625 -1.035156 0.796875 -1.078125 0.671875 -1.078125 C 0.554688 -1.078125 0.46875 -1.035156 0.40625 -0.953125 C 0.34375 -0.878906 0.3125 -0.765625 0.3125 -0.609375 Z M 0.3125 -0.609375 "/></g></g></g></svg>