<svg xmlns="http://www.w3.org/2000/svg" xmlns:xlink="http://www.w3.org/1999/xlink" width="500" zoomAndPan="magnify" viewBox="0 0 375 374.999991" height="500" preserveAspectRatio="xMidYMid meet" version="1.0"><defs><g/><clipPath id="868fc49db1"><path d="M 152 37.5 L 209 37.5 L 209 93 L 152 93 Z M 152 37.5 " clip-rule="nonzero"/></clipPath><clipPath id="f1d50ed96b"><path d="M 114.738281 99.484375 L 260.238281 99.484375 L 260.238281 349.179688 L 114.738281 349.179688 Z M 114.738281 99.484375 " clip-rule="nonzero"/></clipPath></defs><rect x="-37.5" width="450" fill="#ffffff" y="-37.499999" height="449.999989" fill-opacity="1"/><rect x="-37.5" width="450" fill="#9185aa" y="-37.499999" height="449.999989" fill-opacity="1"/><g clip-path="url(#868fc49db1)"><path fill="#43d3e8" d="M 180.574219 92.953125 C 195.804688 92.953125 208.152344 80.609375 208.152344 65.382812 C 208.152344 50.15625 195.804688 37.808594 180.574219 37.808594 C 165.339844 37.808594 152.992188 50.15625 152.992188 65.382812 C 152.992188 80.609375 165.339844 92.953125 180.574219 92.953125 " fill-opacity="1" fill-rule="nonzero"/></g><g clip-path="url(#f1d50ed96b)"><path fill="#43d3e8" d="M 259.832031 215.503906 L 234.253906 119.75 C 234.09375 119.140625 233.886719 118.5625 233.640625 118.003906 C 233.472656 116.332031 232.855469 114.792969 231.910156 113.5 C 231.90625 113.496094 231.90625 113.492188 231.902344 113.488281 C 231.878906 113.457031 231.859375 113.425781 231.835938 113.394531 C 227.574219 107.449219 222.519531 105.929688 222.519531 105.929688 C 213.960938 102.136719 198.378906 99.597656 180.574219 99.597656 C 166.425781 99.597656 153.6875 101.203125 144.757812 103.761719 L 144.644531 103.753906 C 136.511719 106.132812 131.683594 111.527344 129.222656 115.195312 C 128.347656 116.261719 127.648438 117.488281 127.171875 118.851562 C 127.15625 118.882812 127.148438 118.90625 127.148438 118.90625 L 127.148438 118.910156 C 127.054688 119.1875 126.964844 119.464844 126.890625 119.75 L 115.152344 163.695312 C 113.921875 168.296875 115.496094 173.191406 119.179688 176.214844 C 121.398438 178.035156 124.132812 178.976562 126.890625 178.976562 C 128.714844 178.976562 130.546875 178.566406 132.246094 177.730469 L 186.035156 151.308594 C 192.058594 148.351562 194.542969 141.074219 191.582031 135.054688 C 188.625 129.03125 181.34375 126.550781 175.320312 129.507812 L 145.523438 144.144531 L 147.101562 138.234375 C 147.671875 136.105469 149.078125 134.292969 151 133.21875 L 157.546875 129.554688 L 157.601562 129.445312 L 171.851562 122.445312 C 174.523438 121.136719 177.371094 120.445312 180.328125 120.398438 C 187.429688 120.277344 194.140625 123.953125 197.800781 130.039062 C 200.902344 135.191406 201.539062 141.257812 199.625 146.871094 C 197.898438 151.929688 194.304688 156.015625 189.503906 158.371094 L 143.574219 180.929688 L 143.574219 227.613281 C 143.574219 227.613281 143.574219 227.617188 143.574219 227.617188 L 143.574219 333.730469 C 143.574219 342.226562 150.527344 349.179688 159.027344 349.179688 C 167.523438 349.179688 174.476562 342.226562 174.476562 333.730469 L 174.476562 243.304688 L 186.664062 243.304688 L 186.664062 333.730469 C 186.664062 342.226562 193.621094 349.179688 202.121094 349.179688 C 210.617188 349.179688 217.570312 342.226562 217.570312 333.730469 L 217.570312 151.445312 L 236.355469 221.773438 C 237.808594 227.203125 242.71875 230.789062 248.085938 230.789062 C 249.125 230.789062 250.179688 230.652344 251.230469 230.375 C 257.710938 228.644531 261.5625 221.984375 259.832031 215.503906 " fill-opacity="1" fill-rule="nonzero"/></g><g fill="#000000" fill-opacity="1"><g transform="translate(51.323293, 6.37237)"><g><path d="M 0.09375 -0.71875 L 0.296875 -0.71875 C 0.390625 -0.71875 0.457031 -0.703125 0.5 -0.671875 C 0.539062 -0.640625 0.5625 -0.59375 0.5625 -0.53125 C 0.5625 -0.488281 0.550781 -0.453125 0.53125 -0.421875 C 0.507812 -0.398438 0.476562 -0.382812 0.4375 -0.375 C 0.539062 -0.351562 0.59375 -0.296875 0.59375 -0.203125 C 0.59375 -0.140625 0.570312 -0.0859375 0.53125 -0.046875 C 0.488281 -0.015625 0.425781 0 0.34375 0 L 0.09375 0 Z M 0.1875 -0.40625 L 0.3125 -0.40625 C 0.375 -0.40625 0.414062 -0.414062 0.4375 -0.4375 C 0.46875 -0.457031 0.484375 -0.488281 0.484375 -0.53125 C 0.484375 -0.570312 0.46875 -0.597656 0.4375 -0.609375 C 0.40625 -0.628906 0.359375 -0.640625 0.296875 -0.640625 L 0.1875 -0.640625 Z M 0.1875 -0.34375 L 0.1875 -0.078125 L 0.328125 -0.078125 C 0.390625 -0.078125 0.429688 -0.0859375 0.453125 -0.109375 C 0.484375 -0.128906 0.5 -0.160156 0.5 -0.203125 C 0.5 -0.253906 0.484375 -0.289062 0.453125 -0.3125 C 0.429688 -0.332031 0.390625 -0.34375 0.328125 -0.34375 Z M 0.1875 -0.34375 "/></g></g><g transform="translate(51.971374, 6.37237)"><g><path d="M 0.421875 0 L 0.40625 -0.078125 L 0.390625 -0.078125 C 0.367188 -0.046875 0.34375 -0.0195312 0.3125 0 C 0.289062 0.0078125 0.257812 0.015625 0.21875 0.015625 C 0.164062 0.015625 0.125 0 0.09375 -0.03125 C 0.0625 -0.0625 0.046875 -0.0976562 0.046875 -0.140625 C 0.046875 -0.253906 0.132812 -0.3125 0.3125 -0.3125 L 0.390625 -0.328125 L 0.390625 -0.359375 C 0.390625 -0.398438 0.378906 -0.429688 0.359375 -0.453125 C 0.347656 -0.472656 0.320312 -0.484375 0.28125 -0.484375 C 0.238281 -0.484375 0.1875 -0.46875 0.125 -0.4375 L 0.109375 -0.5 C 0.128906 -0.507812 0.15625 -0.519531 0.1875 -0.53125 C 0.21875 -0.539062 0.25 -0.546875 0.28125 -0.546875 C 0.351562 -0.546875 0.398438 -0.53125 0.421875 -0.5 C 0.453125 -0.46875 0.46875 -0.421875 0.46875 -0.359375 L 0.46875 0 Z M 0.234375 -0.0625 C 0.285156 -0.0625 0.320312 -0.0703125 0.34375 -0.09375 C 0.375 -0.125 0.390625 -0.164062 0.390625 -0.21875 L 0.390625 -0.265625 L 0.3125 -0.265625 C 0.25 -0.253906 0.203125 -0.238281 0.171875 -0.21875 C 0.140625 -0.207031 0.125 -0.179688 0.125 -0.140625 C 0.125 -0.117188 0.132812 -0.0976562 0.15625 -0.078125 C 0.175781 -0.0664062 0.203125 -0.0625 0.234375 -0.0625 Z M 0.234375 -0.0625 "/></g></g><g transform="translate(52.527639, 6.37237)"><g><path d="M 0.296875 0.015625 C 0.222656 0.015625 0.164062 -0.0078125 0.125 -0.0625 C 0.0820312 -0.113281 0.0625 -0.179688 0.0625 -0.265625 C 0.0625 -0.359375 0.0820312 -0.425781 0.125 -0.46875 C 0.164062 -0.519531 0.226562 -0.546875 0.3125 -0.546875 C 0.332031 -0.546875 0.351562 -0.539062 0.375 -0.53125 C 0.40625 -0.53125 0.425781 -0.523438 0.4375 -0.515625 L 0.421875 -0.453125 C 0.398438 -0.453125 0.378906 -0.453125 0.359375 -0.453125 C 0.335938 -0.460938 0.316406 -0.46875 0.296875 -0.46875 C 0.191406 -0.46875 0.140625 -0.398438 0.140625 -0.265625 C 0.140625 -0.203125 0.148438 -0.148438 0.171875 -0.109375 C 0.203125 -0.078125 0.242188 -0.0625 0.296875 -0.0625 C 0.335938 -0.0625 0.382812 -0.0703125 0.4375 -0.09375 L 0.4375 -0.015625 C 0.394531 0.00390625 0.347656 0.015625 0.296875 0.015625 Z M 0.296875 0.015625 "/></g></g><g transform="translate(53.003809, 6.37237)"><g><path d="M 0.171875 -0.28125 C 0.179688 -0.289062 0.203125 -0.316406 0.234375 -0.359375 L 0.40625 -0.53125 L 0.5 -0.53125 L 0.28125 -0.3125 L 0.515625 0 L 0.421875 0 L 0.234375 -0.25 L 0.171875 -0.203125 L 0.171875 0 L 0.09375 0 L 0.09375 -0.765625 L 0.171875 -0.765625 L 0.171875 -0.359375 C 0.171875 -0.335938 0.164062 -0.3125 0.15625 -0.28125 Z M 0.171875 -0.28125 "/></g></g><g transform="translate(53.528818, 6.37237)"><g><path d="M 0.328125 0.015625 C 0.296875 0.015625 0.265625 0.0078125 0.234375 0 C 0.210938 -0.0195312 0.191406 -0.0390625 0.171875 -0.0625 L 0.15625 -0.0625 C 0.164062 -0.03125 0.171875 -0.00390625 0.171875 0.015625 L 0.171875 0.234375 L 0.09375 0.234375 L 0.09375 -0.53125 L 0.15625 -0.53125 L 0.15625 -0.46875 L 0.171875 -0.46875 C 0.191406 -0.488281 0.210938 -0.503906 0.234375 -0.515625 C 0.265625 -0.535156 0.296875 -0.546875 0.328125 -0.546875 C 0.398438 -0.546875 0.457031 -0.519531 0.5 -0.46875 C 0.539062 -0.425781 0.5625 -0.359375 0.5625 -0.265625 C 0.5625 -0.179688 0.539062 -0.113281 0.5 -0.0625 C 0.457031 -0.0078125 0.398438 0.015625 0.328125 0.015625 Z M 0.328125 -0.46875 C 0.265625 -0.46875 0.222656 -0.453125 0.203125 -0.421875 C 0.179688 -0.398438 0.171875 -0.351562 0.171875 -0.28125 L 0.171875 -0.265625 C 0.171875 -0.191406 0.179688 -0.140625 0.203125 -0.109375 C 0.234375 -0.078125 0.273438 -0.0625 0.328125 -0.0625 C 0.367188 -0.0625 0.398438 -0.078125 0.421875 -0.109375 C 0.453125 -0.148438 0.46875 -0.203125 0.46875 -0.265625 C 0.46875 -0.335938 0.453125 -0.390625 0.421875 -0.421875 C 0.398438 -0.453125 0.367188 -0.46875 0.328125 -0.46875 Z M 0.328125 -0.46875 "/></g></g><g transform="translate(54.141735, 6.37237)"><g><path d="M 0.421875 0 L 0.40625 -0.078125 L 0.390625 -0.078125 C 0.367188 -0.046875 0.34375 -0.0195312 0.3125 0 C 0.289062 0.0078125 0.257812 0.015625 0.21875 0.015625 C 0.164062 0.015625 0.125 0 0.09375 -0.03125 C 0.0625 -0.0625 0.046875 -0.0976562 0.046875 -0.140625 C 0.046875 -0.253906 0.132812 -0.3125 0.3125 -0.3125 L 0.390625 -0.328125 L 0.390625 -0.359375 C 0.390625 -0.398438 0.378906 -0.429688 0.359375 -0.453125 C 0.347656 -0.472656 0.320312 -0.484375 0.28125 -0.484375 C 0.238281 -0.484375 0.1875 -0.46875 0.125 -0.4375 L 0.109375 -0.5 C 0.128906 -0.507812 0.15625 -0.519531 0.1875 -0.53125 C 0.21875 -0.539062 0.25 -0.546875 0.28125 -0.546875 C 0.351562 -0.546875 0.398438 -0.53125 0.421875 -0.5 C 0.453125 -0.46875 0.46875 -0.421875 0.46875 -0.359375 L 0.46875 0 Z M 0.234375 -0.0625 C 0.285156 -0.0625 0.320312 -0.0703125 0.34375 -0.09375 C 0.375 -0.125 0.390625 -0.164062 0.390625 -0.21875 L 0.390625 -0.265625 L 0.3125 -0.265625 C 0.25 -0.253906 0.203125 -0.238281 0.171875 -0.21875 C 0.140625 -0.207031 0.125 -0.179688 0.125 -0.140625 C 0.125 -0.117188 0.132812 -0.0976562 0.15625 -0.078125 C 0.175781 -0.0664062 0.203125 -0.0625 0.234375 -0.0625 Z M 0.234375 -0.0625 "/></g></g><g transform="translate(54.698, 6.37237)"><g><path d="M 0.296875 0.015625 C 0.222656 0.015625 0.164062 -0.0078125 0.125 -0.0625 C 0.0820312 -0.113281 0.0625 -0.179688 0.0625 -0.265625 C 0.0625 -0.359375 0.0820312 -0.425781 0.125 -0.46875 C 0.164062 -0.519531 0.226562 -0.546875 0.3125 -0.546875 C 0.332031 -0.546875 0.351562 -0.539062 0.375 -0.53125 C 0.40625 -0.53125 0.425781 -0.523438 0.4375 -0.515625 L 0.421875 -0.453125 C 0.398438 -0.453125 0.378906 -0.453125 0.359375 -0.453125 C 0.335938 -0.460938 0.316406 -0.46875 0.296875 -0.46875 C 0.191406 -0.46875 0.140625 -0.398438 0.140625 -0.265625 C 0.140625 -0.203125 0.148438 -0.148438 0.171875 -0.109375 C 0.203125 -0.078125 0.242188 -0.0625 0.296875 -0.0625 C 0.335938 -0.0625 0.382812 -0.0703125 0.4375 -0.09375 L 0.4375 -0.015625 C 0.394531 0.00390625 0.347656 0.015625 0.296875 0.015625 Z M 0.296875 0.015625 "/></g></g><g transform="translate(55.174171, 6.37237)"><g><path d="M 0.171875 -0.28125 C 0.179688 -0.289062 0.203125 -0.316406 0.234375 -0.359375 L 0.40625 -0.53125 L 0.5 -0.53125 L 0.28125 -0.3125 L 0.515625 0 L 0.421875 0 L 0.234375 -0.25 L 0.171875 -0.203125 L 0.171875 0 L 0.09375 0 L 0.09375 -0.765625 L 0.171875 -0.765625 L 0.171875 -0.359375 C 0.171875 -0.335938 0.164062 -0.3125 0.15625 -0.28125 Z M 0.171875 -0.28125 "/></g></g></g></svg>