<svg xmlns="http://www.w3.org/2000/svg" xmlns:xlink="http://www.w3.org/1999/xlink" width="500" zoomAndPan="magnify" viewBox="0 0 375 374.999991" height="500" preserveAspectRatio="xMidYMid meet" version="1.0"><defs><g/><clipPath id="4dfde09334"><path d="M 44.09375 226 L 257 226 L 257 330.59375 L 44.09375 330.59375 Z M 44.09375 226 " clip-rule="nonzero"/></clipPath><clipPath id="c4a40f7cc7"><path d="M 93 44.09375 L 242 44.09375 L 242 153 L 93 153 Z M 93 44.09375 " clip-rule="nonzero"/></clipPath><clipPath id="967c5d6c91"><path d="M 182 182 L 330.59375 182 L 330.59375 330.59375 L 182 330.59375 Z M 182 182 " clip-rule="nonzero"/></clipPath></defs><rect x="-37.5" width="450" fill="#ffffff" y="-37.499999" height="449.999989" fill-opacity="1"/><rect x="-37.5" width="450" fill="#83b4db" y="-37.499999" height="449.999989" fill-opacity="1"/><g clip-path="url(#4dfde09334)"><path fill="#5f88ce" d="M 256.625 330.347656 L 54.566406 330.347656 C 48.535156 330.347656 43.875 325.089844 44.683594 319.175781 L 47.378906 299.125 C 50.90625 272.964844 69.203125 251.082031 94.515625 242.742188 L 143.210938 226.792969 L 187.589844 226.792969 L 256.625 330.347656 " fill-opacity="1" fill-rule="nonzero"/></g><path fill="#804c41" d="M 143.210938 218.703125 L 143.210938 226.792969 C 143.210938 240.410156 154.246094 251.449219 167.867188 251.449219 C 173.742188 251.449219 179.152344 249.386719 183.410156 245.921875 L 197.453125 212 L 143.210938 218.703125 " fill-opacity="1" fill-rule="nonzero"/><g clip-path="url(#c4a40f7cc7)"><path fill="#53342f" d="M 241.832031 152.824219 L 241.832031 118.308594 C 241.832031 77.453125 208.722656 44.339844 167.867188 44.339844 C 127.011719 44.339844 93.898438 77.453125 93.898438 118.308594 L 93.898438 152.824219 L 241.832031 152.824219 " fill-opacity="1" fill-rule="nonzero"/></g><path fill="#986151" d="M 108.691406 138.03125 C 100.503906 138.03125 93.898438 144.640625 93.898438 152.824219 C 93.898438 161.011719 100.503906 167.621094 108.691406 167.621094 L 111.3125 183.242188 C 112.96875 193.277344 118.652344 202.15625 127.050781 207.839844 C 137.066406 214.601562 151.722656 226.792969 167.867188 226.792969 C 184.007812 226.792969 198.667969 214.601562 208.683594 207.839844 C 217.082031 202.15625 222.761719 193.277344 224.421875 183.242188 L 227.039062 167.621094 C 235.226562 167.621094 241.832031 161.011719 241.832031 152.824219 C 241.832031 144.640625 235.226562 138.03125 227.039062 138.03125 C 227.039062 128.246094 221.085938 119.90625 213.132812 118.769531 C 202 117.191406 185.972656 113.472656 172.121094 104.765625 C 169.464844 103.089844 166.265625 103.089844 163.609375 104.765625 C 149.757812 113.472656 133.734375 117.191406 122.597656 118.769531 C 114.644531 119.90625 108.691406 128.246094 108.691406 138.03125 " fill-opacity="1" fill-rule="nonzero"/><g clip-path="url(#967c5d6c91)"><path fill="#e0ba35" d="M 330.59375 256.378906 C 330.59375 297.234375 297.480469 330.347656 256.625 330.347656 C 215.769531 330.347656 182.660156 297.234375 182.660156 256.378906 C 182.660156 215.523438 215.769531 182.414062 256.625 182.414062 C 297.480469 182.414062 330.59375 215.523438 330.59375 256.378906 " fill-opacity="1" fill-rule="nonzero"/></g><path fill="#804c41" d="M 240.253906 284.773438 L 239.367188 274.949219 L 282.574219 271.039062 L 283.460938 280.863281 L 240.253906 284.773438 " fill-opacity="1" fill-rule="nonzero"/><path fill="#986151" d="M 286.773438 300.953125 C 280.300781 287.21875 275.042969 267.996094 272.691406 249.5625 L 282.476562 248.308594 C 284.691406 265.800781 289.640625 283.886719 295.691406 296.734375 L 286.773438 300.953125 " fill-opacity="1" fill-rule="nonzero"/><path fill="#804c41" d="M 236.152344 263.082031 C 233.683594 263.082031 231.546875 261.234375 231.257812 258.730469 C 230.949219 256.035156 232.875 253.566406 235.59375 253.257812 C 267.953125 249.464844 282.089844 241.625 282.246094 241.546875 C 284.59375 240.199219 287.621094 241.027344 288.949219 243.378906 C 290.316406 245.746094 289.507812 248.753906 287.15625 250.101562 C 286.523438 250.464844 271.421875 258.980469 236.730469 263.046875 C 236.535156 263.082031 236.34375 263.082031 236.152344 263.082031 " fill-opacity="1" fill-rule="nonzero"/><path fill="#986151" d="M 241.777344 309.890625 C 239.117188 309.890625 236.921875 307.753906 236.84375 305.074219 C 235.613281 255.109375 217.773438 214.40625 217.601562 214.003906 C 216.503906 211.519531 217.621094 208.589844 220.105469 207.492188 C 222.589844 206.375 225.519531 207.511719 226.617188 209.996094 C 227.386719 211.730469 245.417969 252.816406 246.707031 304.824219 C 246.785156 307.539062 244.625 309.8125 241.910156 309.890625 C 241.871094 309.890625 241.8125 309.890625 241.777344 309.890625 " fill-opacity="1" fill-rule="nonzero"/><path fill="#804c41" d="M 255.414062 310.621094 C 231.796875 310.621094 220.472656 305.441406 220.007812 305.230469 C 217.542969 304.074219 216.484375 301.125 217.640625 298.660156 C 218.796875 296.214844 221.722656 295.136719 224.167969 296.292969 C 224.382812 296.367188 234.378906 300.761719 255.414062 300.761719 C 283.441406 300.761719 297.769531 289.628906 297.925781 289.511719 C 300.042969 287.835938 303.144531 288.164062 304.839844 290.28125 C 306.535156 292.402344 306.226562 295.484375 304.109375 297.179688 C 303.433594 297.738281 287.195312 310.621094 255.414062 310.621094 " fill-opacity="1" fill-rule="nonzero"/><g fill="#000000" fill-opacity="1"><g transform="translate(51.683084, 0.900182)"><g><path d="M 0.328125 0.015625 C 0.296875 0.015625 0.265625 0.0078125 0.234375 0 C 0.210938 -0.0195312 0.191406 -0.0390625 0.171875 -0.0625 L 0.15625 -0.0625 C 0.164062 -0.03125 0.171875 -0.00390625 0.171875 0.015625 L 0.171875 0.234375 L 0.09375 0.234375 L 0.09375 -0.53125 L 0.15625 -0.53125 L 0.15625 -0.46875 L 0.171875 -0.46875 C 0.191406 -0.488281 0.210938 -0.503906 0.234375 -0.515625 C 0.265625 -0.535156 0.296875 -0.546875 0.328125 -0.546875 C 0.398438 -0.546875 0.457031 -0.519531 0.5 -0.46875 C 0.539062 -0.425781 0.5625 -0.359375 0.5625 -0.265625 C 0.5625 -0.179688 0.539062 -0.113281 0.5 -0.0625 C 0.457031 -0.0078125 0.398438 0.015625 0.328125 0.015625 Z M 0.328125 -0.46875 C 0.265625 -0.46875 0.222656 -0.453125 0.203125 -0.421875 C 0.179688 -0.398438 0.171875 -0.351562 0.171875 -0.28125 L 0.171875 -0.265625 C 0.171875 -0.191406 0.179688 -0.140625 0.203125 -0.109375 C 0.234375 -0.078125 0.273438 -0.0625 0.328125 -0.0625 C 0.367188 -0.0625 0.398438 -0.078125 0.421875 -0.109375 C 0.453125 -0.148438 0.46875 -0.203125 0.46875 -0.265625 C 0.46875 -0.335938 0.453125 -0.390625 0.421875 -0.421875 C 0.398438 -0.453125 0.367188 -0.46875 0.328125 -0.46875 Z M 0.328125 -0.46875 "/></g></g><g transform="translate(52.296001, 0.900182)"><g><path d="M 0.328125 -0.546875 C 0.347656 -0.546875 0.367188 -0.546875 0.390625 -0.546875 L 0.390625 -0.46875 C 0.359375 -0.46875 0.335938 -0.46875 0.328125 -0.46875 C 0.285156 -0.46875 0.25 -0.445312 0.21875 -0.40625 C 0.1875 -0.375 0.171875 -0.332031 0.171875 -0.28125 L 0.171875 0 L 0.09375 0 L 0.09375 -0.53125 L 0.15625 -0.53125 L 0.15625 -0.4375 L 0.171875 -0.4375 C 0.191406 -0.46875 0.210938 -0.492188 0.234375 -0.515625 C 0.265625 -0.535156 0.296875 -0.546875 0.328125 -0.546875 Z M 0.328125 -0.546875 "/></g></g><g transform="translate(52.704287, 0.900182)"><g><path d="M 0.3125 0.015625 C 0.226562 0.015625 0.164062 -0.0078125 0.125 -0.0625 C 0.0820312 -0.113281 0.0625 -0.179688 0.0625 -0.265625 C 0.0625 -0.347656 0.0820312 -0.414062 0.125 -0.46875 C 0.164062 -0.519531 0.222656 -0.546875 0.296875 -0.546875 C 0.359375 -0.546875 0.410156 -0.519531 0.453125 -0.46875 C 0.492188 -0.425781 0.515625 -0.367188 0.515625 -0.296875 L 0.515625 -0.25 L 0.140625 -0.25 C 0.140625 -0.1875 0.15625 -0.140625 0.1875 -0.109375 C 0.21875 -0.078125 0.257812 -0.0625 0.3125 -0.0625 C 0.375 -0.0625 0.429688 -0.0703125 0.484375 -0.09375 L 0.484375 -0.03125 C 0.453125 -0.0078125 0.421875 0 0.390625 0 C 0.367188 0.0078125 0.34375 0.015625 0.3125 0.015625 Z M 0.296875 -0.484375 C 0.242188 -0.484375 0.207031 -0.46875 0.1875 -0.4375 C 0.164062 -0.40625 0.148438 -0.363281 0.140625 -0.3125 L 0.421875 -0.3125 C 0.421875 -0.363281 0.410156 -0.40625 0.390625 -0.4375 C 0.367188 -0.46875 0.335938 -0.484375 0.296875 -0.484375 Z M 0.296875 -0.484375 "/></g></g><g transform="translate(53.265436, 0.900182)"><g><path d="M 0.015625 0.234375 C -0.015625 0.234375 -0.0351562 0.234375 -0.046875 0.234375 L -0.046875 0.15625 C -0.0234375 0.164062 -0.00390625 0.171875 0.015625 0.171875 C 0.0351562 0.171875 0.0507812 0.160156 0.0625 0.140625 C 0.0820312 0.128906 0.09375 0.113281 0.09375 0.09375 L 0.09375 -0.53125 L 0.171875 -0.53125 L 0.171875 0.078125 C 0.171875 0.179688 0.117188 0.234375 0.015625 0.234375 Z M 0.078125 -0.6875 C 0.078125 -0.695312 0.0820312 -0.707031 0.09375 -0.71875 C 0.101562 -0.726562 0.113281 -0.734375 0.125 -0.734375 C 0.132812 -0.734375 0.144531 -0.726562 0.15625 -0.71875 C 0.164062 -0.707031 0.171875 -0.695312 0.171875 -0.6875 C 0.171875 -0.664062 0.164062 -0.648438 0.15625 -0.640625 C 0.144531 -0.628906 0.132812 -0.625 0.125 -0.625 C 0.113281 -0.625 0.101562 -0.628906 0.09375 -0.640625 C 0.0820312 -0.648438 0.078125 -0.664062 0.078125 -0.6875 Z M 0.078125 -0.6875 "/></g></g><g transform="translate(53.518417, 0.900182)"><g><path d="M 0.15625 -0.53125 L 0.15625 -0.1875 C 0.15625 -0.144531 0.164062 -0.113281 0.1875 -0.09375 C 0.207031 -0.0703125 0.238281 -0.0625 0.28125 -0.0625 C 0.34375 -0.0625 0.382812 -0.078125 0.40625 -0.109375 C 0.4375 -0.140625 0.453125 -0.1875 0.453125 -0.25 L 0.453125 -0.53125 L 0.53125 -0.53125 L 0.53125 0 L 0.46875 0 L 0.453125 -0.078125 L 0.4375 -0.078125 C 0.425781 -0.046875 0.40625 -0.0195312 0.375 0 C 0.34375 0.0078125 0.3125 0.015625 0.28125 0.015625 C 0.207031 0.015625 0.15625 0 0.125 -0.03125 C 0.09375 -0.0625 0.078125 -0.113281 0.078125 -0.1875 L 0.078125 -0.53125 Z M 0.15625 -0.53125 "/></g></g><g transform="translate(54.132311, 0.900182)"><g><path d="M 0.328125 -0.546875 C 0.398438 -0.546875 0.457031 -0.519531 0.5 -0.46875 C 0.539062 -0.425781 0.5625 -0.359375 0.5625 -0.265625 C 0.5625 -0.179688 0.539062 -0.113281 0.5 -0.0625 C 0.457031 -0.0078125 0.398438 0.015625 0.328125 0.015625 C 0.296875 0.015625 0.265625 0.0078125 0.234375 0 C 0.210938 -0.0195312 0.191406 -0.0390625 0.171875 -0.0625 L 0.15625 -0.0625 L 0.140625 0 L 0.09375 0 L 0.09375 -0.765625 L 0.171875 -0.765625 L 0.171875 -0.578125 C 0.171875 -0.535156 0.164062 -0.5 0.15625 -0.46875 L 0.171875 -0.46875 C 0.203125 -0.519531 0.253906 -0.546875 0.328125 -0.546875 Z M 0.328125 -0.46875 C 0.265625 -0.46875 0.222656 -0.453125 0.203125 -0.421875 C 0.179688 -0.390625 0.171875 -0.335938 0.171875 -0.265625 C 0.171875 -0.191406 0.179688 -0.140625 0.203125 -0.109375 C 0.234375 -0.078125 0.273438 -0.0625 0.328125 -0.0625 C 0.378906 -0.0625 0.414062 -0.078125 0.4375 -0.109375 C 0.457031 -0.148438 0.46875 -0.203125 0.46875 -0.265625 C 0.46875 -0.335938 0.457031 -0.390625 0.4375 -0.421875 C 0.414062 -0.453125 0.378906 -0.46875 0.328125 -0.46875 Z M 0.328125 -0.46875 "/></g></g><g transform="translate(54.745228, 0.900182)"><g><path d="M 0.171875 0 L 0.09375 0 L 0.09375 -0.53125 L 0.171875 -0.53125 Z M 0.078125 -0.6875 C 0.078125 -0.695312 0.0820312 -0.707031 0.09375 -0.71875 C 0.101562 -0.726562 0.113281 -0.734375 0.125 -0.734375 C 0.132812 -0.734375 0.144531 -0.726562 0.15625 -0.71875 C 0.164062 -0.707031 0.171875 -0.695312 0.171875 -0.6875 C 0.171875 -0.664062 0.164062 -0.648438 0.15625 -0.640625 C 0.144531 -0.628906 0.132812 -0.625 0.125 -0.625 C 0.113281 -0.625 0.101562 -0.628906 0.09375 -0.640625 C 0.0820312 -0.648438 0.078125 -0.664062 0.078125 -0.6875 Z M 0.078125 -0.6875 "/></g></g><g transform="translate(54.998209, 0.900182)"><g><path d="M 0.171875 0 L 0.09375 0 L 0.09375 -0.765625 L 0.171875 -0.765625 Z M 0.171875 0 "/></g></g><g transform="translate(55.25119, 0.900182)"><g><path d="M 0.421875 0 L 0.40625 -0.078125 L 0.390625 -0.078125 C 0.367188 -0.046875 0.34375 -0.0195312 0.3125 0 C 0.289062 0.0078125 0.257812 0.015625 0.21875 0.015625 C 0.164062 0.015625 0.125 0 0.09375 -0.03125 C 0.0625 -0.0625 0.046875 -0.0976562 0.046875 -0.140625 C 0.046875 -0.253906 0.132812 -0.3125 0.3125 -0.3125 L 0.390625 -0.328125 L 0.390625 -0.359375 C 0.390625 -0.398438 0.378906 -0.429688 0.359375 -0.453125 C 0.347656 -0.472656 0.320312 -0.484375 0.28125 -0.484375 C 0.238281 -0.484375 0.1875 -0.46875 0.125 -0.4375 L 0.109375 -0.5 C 0.128906 -0.507812 0.15625 -0.519531 0.1875 -0.53125 C 0.21875 -0.539062 0.25 -0.546875 0.28125 -0.546875 C 0.351562 -0.546875 0.398438 -0.53125 0.421875 -0.5 C 0.453125 -0.46875 0.46875 -0.421875 0.46875 -0.359375 L 0.46875 0 Z M 0.234375 -0.0625 C 0.285156 -0.0625 0.320312 -0.0703125 0.34375 -0.09375 C 0.375 -0.125 0.390625 -0.164062 0.390625 -0.21875 L 0.390625 -0.265625 L 0.3125 -0.265625 C 0.25 -0.253906 0.203125 -0.238281 0.171875 -0.21875 C 0.140625 -0.207031 0.125 -0.179688 0.125 -0.140625 C 0.125 -0.117188 0.132812 -0.0976562 0.15625 -0.078125 C 0.175781 -0.0664062 0.203125 -0.0625 0.234375 -0.0625 Z M 0.234375 -0.0625 "/></g></g><g transform="translate(55.807455, 0.900182)"><g><path d="M 0.453125 -0.078125 C 0.410156 -0.015625 0.351562 0.015625 0.28125 0.015625 C 0.207031 0.015625 0.148438 -0.0078125 0.109375 -0.0625 C 0.078125 -0.113281 0.0625 -0.179688 0.0625 -0.265625 C 0.0625 -0.359375 0.078125 -0.425781 0.109375 -0.46875 C 0.148438 -0.519531 0.207031 -0.546875 0.28125 -0.546875 C 0.351562 -0.546875 0.40625 -0.519531 0.4375 -0.46875 L 0.453125 -0.46875 L 0.453125 -0.765625 L 0.53125 -0.765625 L 0.53125 0 L 0.46875 0 Z M 0.28125 -0.0625 C 0.34375 -0.0625 0.382812 -0.078125 0.40625 -0.109375 C 0.4375 -0.140625 0.453125 -0.1875 0.453125 -0.25 L 0.453125 -0.265625 C 0.453125 -0.335938 0.4375 -0.390625 0.40625 -0.421875 C 0.382812 -0.460938 0.34375 -0.484375 0.28125 -0.484375 C 0.238281 -0.484375 0.203125 -0.460938 0.171875 -0.421875 C 0.148438 -0.378906 0.140625 -0.328125 0.140625 -0.265625 C 0.140625 -0.191406 0.148438 -0.140625 0.171875 -0.109375 C 0.203125 -0.078125 0.238281 -0.0625 0.28125 -0.0625 Z M 0.28125 -0.0625 "/></g></g><g transform="translate(56.420372, 0.900182)"><g><path d="M 0.546875 -0.265625 C 0.546875 -0.179688 0.523438 -0.113281 0.484375 -0.0625 C 0.441406 -0.0078125 0.378906 0.015625 0.296875 0.015625 C 0.253906 0.015625 0.210938 0.00390625 0.171875 -0.015625 C 0.128906 -0.046875 0.0976562 -0.0820312 0.078125 -0.125 C 0.0664062 -0.164062 0.0625 -0.210938 0.0625 -0.265625 C 0.0625 -0.359375 0.0820312 -0.425781 0.125 -0.46875 C 0.164062 -0.519531 0.222656 -0.546875 0.296875 -0.546875 C 0.378906 -0.546875 0.441406 -0.519531 0.484375 -0.46875 C 0.523438 -0.414062 0.546875 -0.347656 0.546875 -0.265625 Z M 0.140625 -0.265625 C 0.140625 -0.203125 0.148438 -0.148438 0.171875 -0.109375 C 0.203125 -0.078125 0.242188 -0.0625 0.296875 -0.0625 C 0.347656 -0.0625 0.390625 -0.078125 0.421875 -0.109375 C 0.453125 -0.148438 0.46875 -0.203125 0.46875 -0.265625 C 0.46875 -0.335938 0.453125 -0.390625 0.421875 -0.421875 C 0.390625 -0.453125 0.347656 -0.46875 0.296875 -0.46875 C 0.242188 -0.46875 0.203125 -0.453125 0.171875 -0.421875 C 0.148438 -0.390625 0.140625 -0.335938 0.140625 -0.265625 Z M 0.140625 -0.265625 "/></g></g></g></svg>