<svg xmlns="http://www.w3.org/2000/svg" xmlns:xlink="http://www.w3.org/1999/xlink" width="500" zoomAndPan="magnify" viewBox="0 0 375 374.999991" height="500" preserveAspectRatio="xMidYMid meet" version="1.0"><defs><clipPath id="c22c056140"><path d="M 48.117188 171 L 108 171 L 108 301 L 48.117188 301 Z M 48.117188 171 " clip-rule="nonzero"/></clipPath><clipPath id="73d83a957b"><path d="M 171 61.296875 L 247 61.296875 L 247 98 L 171 98 Z M 171 61.296875 " clip-rule="nonzero"/></clipPath></defs><rect x="-37.5" width="450" fill="#ffffff" y="-37.499999" height="449.999989" fill-opacity="1"/><rect x="-37.5" width="450" fill="#d050e7" y="-37.499999" height="449.999989" fill-opacity="1"/><path fill="#f68953" d="M 241.125 67.0625 L 230.402344 91.90625 L 191.304688 91.90625 L 176.789062 67.0625 L 186.546875 68.6875 C 201.386719 71.164062 216.527344 71.164062 231.367188 68.6875 Z M 241.125 67.0625 " fill-opacity="1" fill-rule="nonzero"/><path fill="#df6d2b" d="M 230.402344 91.90625 C 236.324219 91.90625 241.125 96.714844 241.125 102.636719 C 241.125 108.558594 236.320312 113.363281 230.402344 113.363281 L 191.304688 113.363281 C 185.386719 113.363281 180.585938 108.5625 180.585938 102.636719 C 180.585938 96.714844 185.386719 91.90625 191.304688 91.90625 Z M 230.402344 91.90625 " fill-opacity="1" fill-rule="nonzero"/><path fill="#f68953" d="M 278.347656 219.886719 C 278.339844 226.609375 276.441406 232.890625 273.164062 238.222656 L 219.960938 254.800781 L 217.835938 254.800781 C 222.246094 251.976562 225.027344 246.59375 225.027344 241.917969 C 225.316406 232.699219 217.917969 225.300781 208.957031 225.300781 L 149.980469 225.300781 L 145.210938 220.527344 C 144.679688 210.628906 145.15625 199.929688 147.863281 190.375 C 159.214844 150.316406 179.382812 123.582031 189.632812 113.363281 C 197.96875 113.363281 225.300781 113.363281 233.628906 113.363281 C 261.820312 141.464844 278.371094 179.34375 278.347656 219.886719 Z M 278.347656 219.886719 " fill-opacity="1" fill-rule="nonzero"/><path fill="#615285" d="M 101.730469 295.03125 L 53.480469 295.03125 L 53.480469 177.023438 L 101.730469 177.023438 C 101.730469 182.589844 101.730469 288.058594 101.730469 295.03125 Z M 101.730469 295.03125 " fill-opacity="1" fill-rule="nonzero"/><path fill="#ffdfcf" d="M 208.957031 225.300781 C 217.957031 225.300781 225.316406 232.730469 225.027344 241.917969 C 225.027344 245.375 223.449219 249.46875 220.730469 252.351562 C 218.953125 254.230469 216.847656 255.652344 214.402344 256.535156 C 327.105469 221.410156 247.832031 246.113281 296.355469 230.992188 C 306.714844 228.9375 316.179688 236.875 316.179688 247.253906 C 316.179688 254.394531 311.613281 260.730469 304.847656 262.988281 L 187.511719 308.441406 L 117.8125 284.304688 L 101.730469 284.304688 C 101.730469 271.570312 101.730469 206.011719 101.730469 198.480469 L 123.175781 198.480469 C 126.375 201.683594 147.066406 222.382812 149.980469 225.300781 Z M 208.957031 225.300781 " fill-opacity="1" fill-rule="nonzero"/><g clip-path="url(#c22c056140)"><path fill="#000000" d="M 101.730469 300.394531 L 53.480469 300.394531 C 50.519531 300.394531 48.117188 297.992188 48.117188 295.03125 L 48.117188 177.023438 C 48.117188 174.0625 50.519531 171.660156 53.480469 171.660156 L 101.730469 171.660156 C 104.691406 171.660156 107.09375 174.0625 107.09375 177.023438 L 107.09375 295.03125 C 107.09375 297.992188 104.691406 300.394531 101.730469 300.394531 Z M 58.839844 289.667969 L 96.371094 289.667969 L 96.371094 182.386719 L 58.839844 182.386719 Z M 58.839844 289.667969 " fill-opacity="1" fill-rule="nonzero"/></g><path fill="#000000" d="M 80.285156 273.574219 C 77.324219 273.574219 74.925781 271.171875 74.925781 268.210938 L 74.925781 262.847656 C 74.925781 259.886719 77.324219 257.484375 80.285156 257.484375 C 83.246094 257.484375 85.648438 259.886719 85.648438 262.847656 L 85.648438 268.210938 C 85.648438 271.171875 83.246094 273.574219 80.285156 273.574219 Z M 80.285156 273.574219 " fill-opacity="1" fill-rule="nonzero"/><path fill="#000000" d="M 230.402344 118.726562 C 227.441406 118.726562 225.039062 116.324219 225.039062 113.363281 C 225.039062 110.402344 227.441406 108 230.402344 108 C 233.359375 108 235.761719 105.597656 235.761719 102.636719 C 235.761719 99.679688 233.355469 97.273438 230.402344 97.273438 L 191.304688 97.273438 C 188.347656 97.273438 185.945312 99.671875 185.945312 102.636719 C 185.945312 105.59375 188.351562 108 191.304688 108 C 194.265625 108 196.667969 110.402344 196.667969 113.363281 C 196.667969 116.324219 194.265625 118.726562 191.304688 118.726562 C 182.4375 118.726562 175.222656 111.507812 175.222656 102.636719 C 175.222656 93.746094 182.417969 86.542969 191.304688 86.542969 L 230.402344 86.542969 C 239.269531 86.542969 246.484375 93.761719 246.484375 102.636719 C 246.484375 106.933594 244.8125 110.972656 241.773438 114.011719 C 238.734375 117.054688 234.695312 118.726562 230.402344 118.726562 Z M 230.402344 118.726562 " fill-opacity="1" fill-rule="nonzero"/><path fill="#000000" d="M 270.351562 242.789062 C 267.828125 241.234375 267.042969 237.929688 268.597656 235.410156 C 271.464844 230.75 272.980469 225.382812 272.984375 219.882812 C 273.011719 182.507812 258.4375 146.496094 231.390625 118.726562 L 191.894531 118.726562 C 179.609375 131.683594 162.644531 157.875 153.023438 191.835938 C 150.800781 199.675781 149.972656 209.230469 150.5625 220.238281 C 150.722656 223.195312 148.453125 225.722656 145.496094 225.882812 C 142.558594 226.035156 140.015625 223.769531 139.859375 220.8125 C 139.203125 208.621094 140.164062 197.890625 142.707031 188.910156 C 153.296875 151.53125 172.566406 122.804688 185.851562 109.5625 C 186.855469 108.5625 188.214844 108 189.636719 108 L 233.628906 108 C 235.046875 108 236.410156 108.5625 237.414062 109.5625 C 267.390625 139.449219 283.734375 178.851562 283.710938 219.890625 C 283.703125 227.375 281.636719 234.6875 277.730469 241.035156 C 276.167969 243.566406 272.863281 244.335938 270.351562 242.789062 Z M 270.351562 242.789062 " fill-opacity="1" fill-rule="nonzero"/><g clip-path="url(#73d83a957b)"><path fill="#000000" d="M 228.277344 96.832031 C 225.558594 95.660156 224.304688 92.5 225.480469 89.78125 L 232.304688 73.96875 L 232.246094 73.980469 C 217.300781 76.476562 202.144531 76.558594 187.183594 74.222656 L 195.933594 89.203125 C 197.429688 91.757812 196.570312 95.042969 194.011719 96.539062 C 191.457031 98.035156 188.171875 97.175781 186.679688 94.617188 L 172.160156 69.769531 C 171.109375 67.972656 171.191406 65.730469 172.375 64.019531 C 173.554688 62.304688 175.617188 61.429688 177.667969 61.769531 L 187.425781 63.394531 C 201.710938 65.78125 216.199219 65.78125 230.480469 63.398438 L 240.242188 61.769531 C 242.179688 61.449219 244.136719 62.210938 245.34375 63.757812 C 246.554688 65.300781 246.824219 67.386719 246.046875 69.1875 L 235.324219 94.035156 C 234.152344 96.75 231 98.007812 228.277344 96.832031 Z M 228.277344 96.832031 " fill-opacity="1" fill-rule="nonzero"/></g><path fill="#000000" d="M 211.683594 195.796875 L 200.960938 195.796875 C 198 195.796875 195.601562 193.394531 195.601562 190.433594 C 195.601562 187.472656 198 185.070312 200.960938 185.070312 L 211.683594 185.070312 C 213.117188 185.070312 214.460938 184.511719 215.472656 183.496094 C 217.570312 181.398438 217.570312 178.011719 215.472656 175.914062 C 214.460938 174.898438 213.117188 174.339844 211.683594 174.339844 C 202.761719 174.339844 195.601562 167.109375 195.601562 158.25 C 195.601562 149.375 202.816406 142.15625 211.683594 142.15625 L 222.40625 142.15625 C 225.367188 142.15625 227.769531 144.558594 227.769531 147.519531 C 227.769531 150.484375 225.367188 152.886719 222.40625 152.886719 L 211.683594 152.886719 C 208.726562 152.886719 206.324219 155.292969 206.324219 158.25 C 206.324219 161.1875 208.699219 163.613281 211.683594 163.613281 C 215.980469 163.613281 220.019531 165.289062 223.058594 168.328125 C 229.34375 174.621094 229.34375 184.789062 223.058594 191.082031 C 220.019531 194.125 215.980469 195.796875 211.683594 195.796875 Z M 211.683594 195.796875 " fill-opacity="1" fill-rule="nonzero"/><path fill="#000000" d="M 211.683594 152.886719 C 208.722656 152.886719 206.324219 150.484375 206.324219 147.523438 L 206.324219 136.792969 C 206.324219 133.832031 208.722656 131.429688 211.683594 131.429688 C 214.644531 131.429688 217.046875 133.832031 217.046875 136.792969 L 217.046875 147.523438 C 217.046875 150.484375 214.644531 152.886719 211.683594 152.886719 Z M 211.683594 152.886719 " fill-opacity="1" fill-rule="nonzero"/><path fill="#000000" d="M 211.683594 206.527344 C 208.722656 206.527344 206.324219 204.125 206.324219 201.160156 L 206.324219 190.433594 C 206.324219 187.472656 208.722656 185.070312 211.683594 185.070312 C 214.644531 185.070312 217.046875 187.472656 217.046875 190.433594 L 217.046875 201.160156 C 217.046875 204.125 214.644531 206.527344 211.683594 206.527344 Z M 211.683594 206.527344 " fill-opacity="1" fill-rule="nonzero"/><path fill="#000000" d="M 185.757812 313.511719 L 116.914062 289.667969 L 101.730469 289.667969 C 98.769531 289.667969 96.371094 287.265625 96.371094 284.304688 C 96.371094 281.339844 98.769531 278.941406 101.730469 278.941406 L 117.8125 278.941406 C 118.410156 278.941406 119.003906 279.039062 119.566406 279.234375 L 187.40625 302.730469 C 308.585938 255.789062 302.941406 257.96875 303.152344 257.898438 C 307.738281 256.367188 310.820312 252.089844 310.820312 247.253906 C 310.820312 240.378906 304.652344 234.972656 297.652344 236.203125 L 215.996094 261.65625 C 213.171875 262.535156 210.164062 260.957031 209.285156 258.128906 C 208.402344 255.300781 209.980469 252.292969 212.808594 251.414062 C 298.757812 224.632812 294.785156 225.835938 295.3125 225.730469 C 308.988281 223.019531 321.542969 233.488281 321.542969 247.253906 C 321.542969 256.667969 315.570312 265 306.671875 268.03125 L 189.445312 313.441406 C 188.265625 313.902344 186.957031 313.925781 185.757812 313.511719 Z M 185.757812 313.511719 " fill-opacity="1" fill-rule="nonzero"/><path fill="#000000" d="M 208.957031 262.847656 L 149.980469 262.847656 C 147.019531 262.847656 144.621094 260.445312 144.621094 257.484375 C 144.621094 254.519531 147.019531 252.121094 149.980469 252.121094 L 208.957031 252.121094 C 210.253906 252.121094 211.429688 251.886719 212.582031 251.492188 L 212.582031 251.488281 C 216.492188 250.074219 219.554688 246.253906 219.671875 241.753906 C 219.863281 235.574219 214.925781 230.664062 208.957031 230.664062 L 149.980469 230.664062 C 148.558594 230.664062 147.195312 230.097656 146.191406 229.09375 L 120.953125 203.84375 L 101.730469 203.84375 C 98.769531 203.84375 96.371094 201.441406 96.371094 198.480469 C 96.371094 195.515625 98.769531 193.117188 101.730469 193.117188 L 123.175781 193.117188 C 124.597656 193.117188 125.960938 193.679688 126.964844 194.6875 L 152.203125 219.9375 L 208.957031 219.9375 C 220.804688 219.9375 230.402344 229.535156 230.402344 241.390625 C 230.402344 253.210938 220.820312 262.847656 208.957031 262.847656 Z M 208.957031 262.847656 " fill-opacity="1" fill-rule="nonzero"/><path fill="#000000" d="M 80.285156 284.304688 C 77.324219 284.304688 74.925781 281.902344 74.925781 278.941406 L 74.925781 268.210938 C 74.925781 265.25 77.324219 262.847656 80.285156 262.847656 C 83.246094 262.847656 85.648438 265.25 85.648438 268.210938 L 85.648438 278.941406 C 85.648438 281.902344 83.246094 284.304688 80.285156 284.304688 Z M 80.285156 284.304688 " fill-opacity="1" fill-rule="nonzero"/></svg>